<?xml version="1.0" encoding="UTF-8" standalone="no"?>
<svg
   width="1500"
   height="1500"
   version="1.1"
   id="svg4"
   sodipodi:docname="BlackKing.svg"
   inkscape:version="1.4 (86a8ad7, 2024-10-11)"
   xmlns:inkscape="http://www.inkscape.org/namespaces/inkscape"
   xmlns:sodipodi="http://sodipodi.sourceforge.net/DTD/sodipodi-0.dtd"
   xmlns="http://www.w3.org/2000/svg"
   xmlns:svg="http://www.w3.org/2000/svg">
  <defs
     id="defs4" />
  <sodipodi:namedview
     id="namedview4"
     pagecolor="#505050"
     bordercolor="#ffffff"
     borderopacity="1"
     inkscape:showpageshadow="0"
     inkscape:pageopacity="0"
     inkscape:pagecheckerboard="1"
     inkscape:deskcolor="#505050"
     inkscape:zoom="0.41984465"
     inkscape:cx="872.94193"
     inkscape:cy="727.6501"
     inkscape:window-width="1920"
     inkscape:window-height="1057"
     inkscape:window-x="1912"
     inkscape:window-y="-8"
     inkscape:window-maximized="1"
     inkscape:current-layer="g4" />
  <g
     fill="none"
     fill-rule="evenodd"
     stroke="#000"
     stroke-linecap="round"
     stroke-linejoin="round"
     stroke-width="1.5"
     id="g4"
     style="fill:#000000;fill-opacity:1;stroke:#ffffff;stroke-opacity:1"
     transform="matrix(38.807357,0,0,38.807357,-123.01543,-138.94279)">
    <path
       stroke-linejoin="miter"
       d="M 22.5,11.63 V 6 M 20,8 h 5"
       id="path1"
       style="fill:#000000;fill-opacity:1;stroke:#000000;stroke-opacity:1;stroke-width:1.49999909;stroke-dasharray:none" />
    <path
       fill="#fff"
       stroke-linecap="butt"
       stroke-linejoin="miter"
       d="m 22.5,25 c 0,0 4.5,-7.5 3,-10.5 0,0 -1,-2.5 -3,-2.5 -2,0 -3,2.5 -3,2.5 -1.5,3 3,10.5 3,10.5"
       id="path2"
       style="fill:#000000;fill-opacity:1;stroke:#ffffff;stroke-opacity:1" />
    <path
       fill="#fff"
       d="m 12.5,37 c 5.5,3.5 14.5,3.5 20,0 v -7 c 0,0 9,-4.5 6,-10.5 -4,-6.5 -13.5,-3.5 -16,4 V 27 23.5 C 20,16 10.5,13 6.5,19.5 c -3,6 6,10.5 6,10.5 v 7"
       id="path3"
       style="fill:#000000;fill-opacity:1;stroke:#ffffff;stroke-width:1.5;stroke-dasharray:none;stroke-opacity:1" />
    <path
       d="m 12.5,30 c 5.5,-3 14.5,-3 20,0 m -20,3.5 c 5.5,-3 14.5,-3 20,0 m -20,3.5 c 5.5,-3 14.5,-3 20,0"
       id="path4"
       style="fill:#000000;fill-opacity:1;stroke:#ffffff;stroke-width:1;stroke-dasharray:none;stroke-opacity:1" />
  </g>
</svg>
