<?xml version="1.0" encoding="UTF-8" standalone="no"?>
<svg
   version="1.1"
   width="1500"
   height="1500"
   id="svg8"
   sodipodi:docname="BlackQueen.svg"
   inkscape:version="1.4 (86a8ad7, 2024-10-11)"
   xmlns:inkscape="http://www.inkscape.org/namespaces/inkscape"
   xmlns:sodipodi="http://sodipodi.sourceforge.net/DTD/sodipodi-0.dtd"
   xmlns="http://www.w3.org/2000/svg"
   xmlns:svg="http://www.w3.org/2000/svg">
  <defs
     id="defs8" />
  <sodipodi:namedview
     id="namedview8"
     pagecolor="#505050"
     bordercolor="#ffffff"
     borderopacity="1"
     inkscape:showpageshadow="0"
     inkscape:pageopacity="0"
     inkscape:pagecheckerboard="1"
     inkscape:deskcolor="#505050"
     inkscape:zoom="0.41984465"
     inkscape:cx="539.48526"
     inkscape:cy="746.70476"
     inkscape:window-width="1920"
     inkscape:window-height="1057"
     inkscape:window-x="1912"
     inkscape:window-y="-8"
     inkscape:window-maximized="1"
     inkscape:current-layer="svg8" />
  <g
     style="fill:#000000;fill-opacity:1;stroke:#ffffff;stroke-width:1.5;stroke-linejoin:round;stroke-opacity:1"
     id="g8"
     transform="matrix(35.026191,0,0,35.026191,-39.130119,-42.872998)">
    <path
       d="m 9,26 c 8.5,-1.5 21,-1.5 27,0 L 38.5,13.5 31,25 30.7,10.9 25.5,24.5 22.5,10 19.5,24.5 14.3,10.9 14,25 6.5,13.5 Z"
       id="path1"
       style="fill:#000000;fill-opacity:1;stroke:#ffffff;stroke-opacity:1" />
    <path
       d="m 9,26 c 0,2 1.5,2 2.5,4 1,1.5 1,1 0.5,3.5 -1.5,1 -1,2.5 -1,2.5 -1.5,1.5 0,2.5 0,2.5 6.5,1 16.5,1 23,0 0,0 1.5,-1 0,-2.5 0,0 0.5,-1.5 -1,-2.5 -0.5,-2.5 -0.5,-2 0.5,-3.5 1,-2 2.5,-2 2.5,-4 -8.5,-1.5 -18.5,-1.5 -27,0 z"
       id="path2"
       style="fill:#000000;fill-opacity:1;stroke:#ffffff;stroke-opacity:1" />
    <path
       d="M 11.5,30 C 15,29 30,29 33.5,30"
       style="fill:#000000;fill-opacity:1;stroke:#ffffff;stroke-opacity:1"
       id="path3" />
    <path
       d="m 12,33.5 c 6,-1 15,-1 21,0"
       style="fill:#000000;fill-opacity:1;stroke:#ffffff;stroke-opacity:1"
       id="path4" />
    <circle
       cx="6"
       cy="12"
       r="2"
       id="circle4"
       style="fill:#000000;fill-opacity:1;stroke:#ffffff;stroke-opacity:1" />
    <circle
       cx="14"
       cy="9"
       r="2"
       id="circle5"
       style="fill:#000000;fill-opacity:1;stroke:#ffffff;stroke-opacity:1" />
    <circle
       cx="22.5"
       cy="8"
       r="2"
       id="circle6"
       style="fill:#000000;fill-opacity:1;stroke:#ffffff;stroke-opacity:1" />
    <circle
       cx="31"
       cy="9"
       r="2"
       id="circle7"
       style="fill:#000000;fill-opacity:1;stroke:#ffffff;stroke-opacity:1" />
    <circle
       cx="39"
       cy="12"
       r="2"
       id="circle8"
       style="fill:#000000;fill-opacity:1;stroke:#ffffff;stroke-opacity:1" />
  </g>
</svg>
