<svg width="41" height="52" viewBox="0 0 41 52" fill="none" xmlns="http://www.w3.org/2000/svg">
<mask id="mask0_2766_207" style="mask-type:alpha" maskUnits="userSpaceOnUse" x="0" y="0" width="41" height="52">
<path d="M20.2406 25.7379L38.6065 38.239C39.1536 38.6115 39.4811 39.2305 39.4811 39.8924V49.9757C39.4811 50.2519 39.2572 50.4757 38.9811 50.4757H1.5C1.22386 50.4757 1 50.2519 1 49.9757V39.8924C1 39.2305 1.32746 38.6115 1.87462 38.239L20.2406 25.7379ZM20.2406 25.7379L38.6065 13.2367C39.1536 12.8642 39.4811 12.2452 39.4811 11.5833V1.5C39.4811 1.22386 39.2572 1 38.9811 1H1.5C1.22386 1 1 1.22386 1 1.5V11.5833C1 12.2452 1.32746 12.8642 1.87462 13.2367L20.2406 25.7379Z" stroke="#33363F" stroke-width="2" stroke-linecap="round" stroke-linejoin="round"/>
<path d="M38.6648 37.9741V49.4868H1.81616V37.9741L20.241 26.4614L38.6648 37.9741ZM20.656 34.3892C20.4008 34.2342 20.0801 34.2341 19.825 34.3892L9.95288 40.3872C9.80371 40.4778 9.71276 40.6394 9.71265 40.814V46.7788C9.71265 46.8616 9.77933 46.9291 9.86206 46.9292H30.6189C30.7017 46.9292 30.7693 46.8617 30.7693 46.7788V40.814C30.7692 40.6394 30.6772 40.4778 30.5281 40.3872L20.656 34.3892Z" fill="#33363F"/>
<path d="M39.4811 13.3689V1H1V13.3689L20.2406 25.7379L39.4811 13.3689Z" fill="#33363F"/>
</mask>
<g mask="url(#mask0_2766_207)">
<path d="M-5.64233 -1.07568H46.1235V52.5511H-5.64233V-1.07568Z" fill="url(#paint0_linear_2766_207)"/>
</g>
<defs>
<linearGradient id="paint0_linear_2766_207" x1="20.2406" y1="-1.07568" x2="20.2406" y2="52.5511" gradientUnits="userSpaceOnUse">
<stop stop-color="#BEF2DD"/>
<stop offset="1" stop-color="#59AA65"/>
</linearGradient>
</defs>
</svg>
