<svg width="70" height="71" viewBox="0 0 70 71" fill="none" xmlns="http://www.w3.org/2000/svg">
<path d="M59.594 32.6113C59.2998 32.1439 58.6824 32.0035 58.215 32.2977L50.5982 37.0919C50.1308 37.3861 49.9904 38.0035 50.2846 38.4709C50.5788 38.9383 51.1962 39.0787 51.6636 38.7845L58.4341 34.523L62.6956 41.2935C62.9898 41.7609 63.6072 41.9013 64.0746 41.6071C64.542 41.3129 64.6824 40.6955 64.3882 40.2281L59.594 32.6113ZM42.9491 52.5065C42.3968 52.5065 41.9491 52.9542 41.9491 53.5065C41.9491 54.0588 42.3968 54.5065 42.9491 54.5065V53.5065V52.5065ZM19.3065 28.2038C19.535 28.7066 20.1278 28.9289 20.6306 28.7004L28.8241 24.9766C29.3269 24.7481 29.5492 24.1553 29.3207 23.6525C29.0922 23.1497 28.4994 22.9273 27.9966 23.1558L20.7135 26.4659L17.4034 19.1828C17.1749 18.68 16.5821 18.4577 16.0793 18.6862C15.5765 18.9147 15.3541 19.5075 15.5827 20.0103L19.3065 28.2038ZM38.034 11.0605C38.5863 11.0605 39.034 10.6128 39.034 10.0605C39.034 9.50826 38.5863 9.06055 38.034 9.06055V10.0605V11.0605ZM58.7477 33.144C57.7726 32.9222 57.7726 32.9221 57.7726 32.922C57.7726 32.922 57.7726 32.922 57.7726 32.9222C57.7725 32.9224 57.7724 32.923 57.7722 32.9239C57.7718 32.9257 57.7711 32.9287 57.7701 32.9329C57.7682 32.9414 57.7651 32.9546 57.7608 32.9725C57.7524 33.0082 57.7394 33.0625 57.7218 33.1341C57.6866 33.2773 57.6331 33.4897 57.5606 33.7613C57.4157 34.3049 57.1956 35.0847 56.8969 36.0219C56.2982 37.8995 55.3886 40.3926 54.1424 42.8769C52.8923 45.3689 51.328 47.8022 49.4393 49.6007C47.5591 51.3913 45.4102 52.5065 42.9491 52.5065V53.5065V54.5065C46.0718 54.5065 48.6896 53.0764 50.8186 51.049C52.9392 49.0296 54.6265 46.3722 55.9301 43.7736C57.2376 41.1672 58.1837 38.5697 58.8023 36.6294C59.1122 35.6576 59.3412 34.8466 59.4931 34.2765C59.5691 33.9914 59.626 33.7663 59.6641 33.6113C59.6831 33.5337 59.6975 33.4737 59.7073 33.4323C59.7121 33.4117 59.7159 33.3957 59.7185 33.3845C59.7197 33.379 59.7208 33.3746 59.7215 33.3715C59.7218 33.3699 59.7221 33.3686 59.7223 33.3677C59.7225 33.3672 59.7226 33.3667 59.7226 33.3665C59.7227 33.3661 59.7228 33.3657 58.7477 33.144ZM20.2169 27.79C21.1532 28.1412 21.1531 28.1414 21.1531 28.1415C21.1531 28.1415 21.1531 28.1415 21.1531 28.1414C21.1532 28.1412 21.1533 28.1407 21.1536 28.14C21.1542 28.1386 21.1551 28.136 21.1565 28.1325C21.1592 28.1253 21.1635 28.114 21.1694 28.0986C21.1813 28.0679 21.1995 28.0211 21.224 27.9592C21.2731 27.8353 21.3474 27.6512 21.4464 27.4155C21.6444 26.944 21.941 26.2667 22.3319 25.4526C23.1148 23.8216 24.2697 21.6541 25.7607 19.4932C28.7949 15.0958 32.9873 11.0605 38.034 11.0605V10.0605V9.06055C31.9132 9.06055 27.197 13.89 24.1145 18.3574C22.5472 20.6289 21.3417 22.8938 20.5288 24.5871C20.1218 25.435 19.8116 26.1429 19.6024 26.641C19.4978 26.8901 19.4183 27.0869 19.3645 27.2227C19.3376 27.2906 19.3171 27.3433 19.3031 27.3797C19.2961 27.3979 19.2907 27.412 19.287 27.4219C19.2851 27.4269 19.2836 27.4308 19.2825 27.4336C19.282 27.435 19.2816 27.4362 19.2812 27.437C19.2811 27.4375 19.2809 27.4379 19.2808 27.4382C19.2807 27.4386 19.2805 27.4389 20.2169 27.79Z" fill="#4C4C4C"/>
<mask id="mask0_2565_656" style="mask-type:alpha" maskUnits="userSpaceOnUse" x="0" y="29" width="41" height="42">
<path fill-rule="evenodd" clip-rule="evenodd" d="M20.0542 37.0782V30.2817V37.0782ZM17.0362 32.6961H23.0722H17.0362Z" fill="url(#paint0_linear_2565_656)"/>
<path d="M20.0542 37.0782V30.2817M17.0362 32.6961H23.0722" stroke="url(#paint1_linear_2565_656)" stroke-linecap="round"/>
<path fill-rule="evenodd" clip-rule="evenodd" d="M20.0542 52.5119C20.0542 52.5119 25.4865 43.4579 23.6757 39.8363C23.6757 39.8363 22.4686 36.8184 20.0542 36.8184C17.6398 36.8184 16.4326 39.8363 16.4326 39.8363C14.6218 43.4579 20.0542 52.5119 20.0542 52.5119Z" fill="url(#paint2_linear_2565_656)"/>
<path fill-rule="evenodd" clip-rule="evenodd" d="M7.98225 66.9977C14.6218 71.2229 25.4865 71.2229 32.1261 66.9977V58.5474C32.1261 58.5474 42.9908 53.115 39.3692 45.8719C34.5405 38.0252 23.0721 41.6467 20.0542 50.7007C17.0362 41.6467 5.56786 38.0252 0.739097 45.8719C-2.88248 53.115 7.98225 58.5474 7.98225 58.5474V66.9977Z" fill="url(#paint3_linear_2565_656)"/>
</mask>
<g mask="url(#mask0_2565_656)">
<rect x="-0.992249" y="29.3413" width="42.0729" height="40.8259" fill="url(#paint4_linear_2565_656)"/>
</g>
<mask id="mask1_2565_656" style="mask-type:alpha" maskUnits="userSpaceOnUse" x="42" y="0" width="28" height="28">
<path fill-rule="evenodd" clip-rule="evenodd" d="M55.5831 5.06748V0.5V5.06748ZM53.5549 2.12255H57.6112H53.5549Z" fill="url(#paint5_linear_2565_656)"/>
<path d="M55.5831 5.06748V0.5M53.5549 2.12255H57.6112" stroke="url(#paint6_linear_2565_656)" stroke-linecap="round"/>
<path fill-rule="evenodd" clip-rule="evenodd" d="M55.5831 15.4392C55.5831 15.4392 59.2338 9.35459 58.0169 6.92077C58.0169 6.92077 57.2056 4.89258 55.5831 4.89258C53.9605 4.89258 53.1492 6.92077 53.1492 6.92077C51.9323 9.35459 55.5831 15.4392 55.5831 15.4392Z" fill="url(#paint7_linear_2565_656)"/>
<path fill-rule="evenodd" clip-rule="evenodd" d="M47.4703 25.1748C51.9323 28.0142 59.2338 28.0142 63.6958 25.1748V19.4958C63.6958 19.4958 70.9973 15.8451 68.5635 10.9774C65.3184 5.70415 57.6113 8.13798 55.5831 14.2225C53.5549 8.13798 45.8478 5.70415 42.6027 10.9774C40.1688 15.8451 47.4703 19.4958 47.4703 19.4958V25.1748Z" fill="url(#paint8_linear_2565_656)"/>
</mask>
<g mask="url(#mask1_2565_656)">
<rect x="41.9391" y="0.367676" width="27.2745" height="26.4365" fill="#4C4C4C" stroke="#4C4C4C"/>
</g>
<defs>
<linearGradient id="paint0_linear_2565_656" x1="20.0542" y1="30.2817" x2="20.0542" y2="37.0782" gradientUnits="userSpaceOnUse">
<stop stop-color="#CCCECD"/>
<stop offset="1" stop-color="#747675"/>
</linearGradient>
<linearGradient id="paint1_linear_2565_656" x1="20.0542" y1="30.2817" x2="20.0542" y2="37.0782" gradientUnits="userSpaceOnUse">
<stop stop-color="#DCDEDD"/>
<stop offset="1" stop-color="#C8CAC9"/>
</linearGradient>
<linearGradient id="paint2_linear_2565_656" x1="20.0542" y1="36.8184" x2="20.0542" y2="52.5119" gradientUnits="userSpaceOnUse">
<stop stop-color="#D3D5D4"/>
<stop offset="1" stop-color="#AEB0AF"/>
</linearGradient>
<linearGradient id="paint3_linear_2565_656" x1="20.0542" y1="41.5635" x2="20.0542" y2="70.1666" gradientUnits="userSpaceOnUse">
<stop stop-color="#CCCECD"/>
<stop offset="1" stop-color="#747675"/>
</linearGradient>
<linearGradient id="paint4_linear_2565_656" x1="20.0442" y1="29.3413" x2="20.0442" y2="70.1672" gradientUnits="userSpaceOnUse">
<stop stop-color="#D9D9D9"/>
<stop offset="1" stop-color="#939393"/>
</linearGradient>
<linearGradient id="paint5_linear_2565_656" x1="55.5831" y1="0.5" x2="55.5831" y2="5.06748" gradientUnits="userSpaceOnUse">
<stop stop-color="#CCCECD"/>
<stop offset="1" stop-color="#747675"/>
</linearGradient>
<linearGradient id="paint6_linear_2565_656" x1="55.5831" y1="0.5" x2="55.5831" y2="5.06748" gradientUnits="userSpaceOnUse">
<stop stop-color="#DCDEDD"/>
<stop offset="1" stop-color="#C8CAC9"/>
</linearGradient>
<linearGradient id="paint7_linear_2565_656" x1="55.5831" y1="4.89258" x2="55.5831" y2="15.4392" gradientUnits="userSpaceOnUse">
<stop stop-color="#D3D5D4"/>
<stop offset="1" stop-color="#AEB0AF"/>
</linearGradient>
<linearGradient id="paint8_linear_2565_656" x1="55.5831" y1="8.08203" x2="55.5831" y2="27.3044" gradientUnits="userSpaceOnUse">
<stop stop-color="#CCCECD"/>
<stop offset="1" stop-color="#747675"/>
</linearGradient>
</defs>
</svg>
