<svg width="86" height="82" viewBox="0 0 86 82" fill="none" xmlns="http://www.w3.org/2000/svg">
<path d="M40.5297 4.15564C39.509 4.08494 39.1536 5.70142 37.9607 5.80605C36.7678 5.91066 36.3954 5.20349 35.1362 5.72246C33.877 6.24138 32.4338 6.07619 31.9358 6.54116C31.4378 7.00622 31.1258 6.08716 30.3566 6.51596C29.5875 6.94472 29.0548 6.95656 28.252 6.84579C27.4491 6.73502 25.1632 7.06929 24.4574 7.65877C23.7516 8.24825 22.6587 7.84642 22.0647 7.84082C21.8797 7.83908 21.7266 7.80986 21.6045 7.76952C21.5527 7.75241 21.5162 7.69738 21.5002 7.6377C21.5002 7.63766 21.5002 7.63762 21.5001 7.63758C21.4802 7.56325 21.4922 7.48173 21.5462 7.45718C21.8086 7.33803 22.1867 7.10781 22.5992 6.70839C23.3684 5.96362 23.616 6.49253 24.7673 5.90724C25.9186 5.32195 26.5136 4.60916 28.0391 4.55822C29.5647 4.50727 29.5202 3.02179 31.7595 3.27038C33.9987 3.51892 33.8206 2.00064 35.7886 1.26507C37.7567 0.5295 40.5227 0.652403 41.7225 0.259262C41.8676 0.211713 42.0185 0.161015 42.1746 0.108148L42.9004 -0.00022471L43.1754 0.108148C44.3505 0.342913 45.8276 0.61972 47.2997 1.19584C48.9744 1.85123 51.2359 1.9355 53.0493 2.79014C54.8626 3.64477 57.4402 4.80117 58.6068 5.42584C59.7734 6.05049 60.0591 6.19745 61.3048 6.34052C62.0208 6.42276 62.9436 6.77334 63.6441 7.36415C63.9966 7.66149 63.8346 7.90056 63.3949 7.91791C62.752 7.94326 62.2978 7.68952 61.9037 7.93695C61.1162 8.43147 60.7888 8.6144 60.12 8.02455C59.4512 7.43476 58.8544 8.20799 58.4316 7.98729C58.0087 7.76653 58.1537 7.25498 55.7611 7.03794C53.3685 6.82091 52.0879 6.58599 51.1965 6.44895C50.3051 6.31191 48.6164 5.38173 47.1621 5.16446C45.8721 4.97173 43.5001 4.22914 42.1242 4.03129H43.2258C43.0614 4.09711 42.9154 4.16251 42.7927 4.22729C41.7067 4.80052 41.5503 4.22635 40.5297 4.15564ZM78.578 68.4519C77.6587 68.901 78.1591 70.4787 77.1784 71.1657C76.1976 71.8528 75.5215 71.4265 74.6905 72.5056C73.8595 73.5846 72.527 74.1632 72.3282 74.8148C72.1295 75.4666 71.3998 74.8266 70.948 75.5826C70.4963 76.3385 70.0409 76.6151 69.2902 76.9205C68.5395 77.2261 66.727 78.6585 66.4105 79.5219C66.094 80.3853 64.9466 80.5838 64.4294 80.8759C64.2683 80.9669 64.1211 81.0181 63.9952 81.0443C63.9418 81.0553 63.8826 81.026 63.8389 80.9823C63.8389 80.9822 63.8389 80.9822 63.8389 80.9822C63.7845 80.9278 63.754 80.8512 63.7886 80.8029C63.9562 80.5686 64.1685 80.1801 64.3261 79.6279C64.6199 78.5984 65.0987 78.9326 65.8032 77.8501C66.5076 76.7675 66.6664 75.8528 67.9621 75.0459C69.2578 74.239 68.4765 72.9748 70.5401 72.0704C72.6036 71.166 71.6902 69.9402 73.0268 68.3192C74.3634 66.6981 76.8203 65.4216 77.6628 64.4812C77.7647 64.3674 77.87 64.2481 77.9788 64.1243L77.4784 64.9909C77.7132 63.8158 77.99 62.3387 78.5661 60.8666C79.2215 59.1919 79.3057 56.9304 80.1604 55.1171C81.015 53.3037 82.1714 50.7261 82.7961 49.5595C83.4207 48.3929 83.5677 48.1072 83.7108 46.8615C83.793 46.1455 84.1436 45.2227 84.7344 44.5223C85.0317 44.1697 85.2708 44.3317 85.2881 44.7714C85.3135 45.4143 85.0598 45.8686 85.3072 46.2626C85.8017 47.0501 85.9846 47.3775 85.3948 48.0463C84.805 48.7151 85.5782 49.3119 85.3575 49.7347C85.1368 50.1576 84.6252 50.0126 84.4082 52.4052C84.1911 54.7979 83.9562 56.0784 83.8192 56.9698C83.6822 57.8612 82.752 59.5499 82.5347 61.0043C82.342 62.2943 81.5994 64.6662 81.4015 66.0421L81.3535 66.364L80.8507 66.9962C80.7412 67.1354 80.6475 67.2651 80.5736 67.3825C79.9197 68.4219 79.4972 68.0029 78.578 68.4519ZM3.82412 63.346C3.89482 62.3254 2.27833 61.9699 2.17371 60.777C2.0691 59.5841 2.77627 59.2118 2.2573 57.9525C1.73838 56.6934 1.90357 55.2501 1.4386 54.7521C0.973542 54.2541 1.89259 53.9422 1.4638 53.173C1.03504 52.4038 1.02319 51.8712 1.13397 51.0683C1.24474 50.2654 0.910468 47.9795 0.32099 47.2737C-0.26849 46.5679 0.133341 45.475 0.138934 44.881C0.140677 44.696 0.169895 44.5429 0.210234 44.4208C0.227349 44.369 0.282373 44.3325 0.342061 44.3165C0.342099 44.3165 0.342138 44.3165 0.342177 44.3165C0.416504 44.2966 0.498028 44.3085 0.522575 44.3625C0.641728 44.6249 0.871944 45.003 1.27137 45.4155C2.01614 46.1847 1.48723 46.4323 2.07252 47.5836C2.65781 48.735 3.3706 49.3299 3.42154 50.8555C3.47249 52.381 4.95797 52.3365 4.70938 54.5758C4.46083 56.8151 5.97912 56.6369 6.71469 58.6049C7.45026 60.573 7.32735 63.339 7.7205 64.5388C7.76805 64.684 7.81874 64.8348 7.87161 64.9909L7.37123 64.1243C8.27154 64.9151 9.41236 65.8934 10.3992 67.1284C11.5218 68.5333 13.4382 69.737 14.5813 71.3839C15.7244 73.0307 17.3785 75.321 18.0764 76.4453C18.7744 77.5695 18.9484 77.8396 19.9556 78.5864C20.5345 79.0156 21.1584 79.7806 21.4696 80.6425C21.6263 81.0763 21.3664 81.2023 20.977 80.9975C20.4075 80.698 20.141 80.2511 19.676 80.2684C18.7468 80.3029 18.3718 80.2976 18.0875 79.4524C17.8032 78.6072 16.8998 78.9785 16.6439 78.5759C16.3881 78.1733 16.7695 77.8028 14.8059 76.4185C12.8423 75.0342 11.8508 74.1905 11.1473 73.6261C10.4439 73.0617 9.44651 71.4118 8.29564 70.4965C7.27483 69.6846 5.59198 67.8555 4.49929 66.9962L4.2446 66.7937L3.94847 66.0421C3.88265 65.8777 3.81725 65.7317 3.75246 65.609C3.17924 64.5231 3.7534 64.3667 3.82412 63.346Z" fill="#316C40"/>
<mask id="mask0_2565_569" style="mask-type:alpha" maskUnits="userSpaceOnUse" x="15" y="13" width="56" height="50">
<path d="M22.4999 43.6726C35.2028 41.3833 53.8834 41.3833 62.8501 43.6726L66.5862 24.5951L55.3778 42.1464L54.9295 20.627L47.1584 41.3833L42.675 19.2534L38.1917 41.3833L30.4205 20.627L29.9722 42.1464L18.7638 24.5951L22.4999 43.6726Z" fill="white"/>
<path d="M22.5 43.1642C22.5 46.1531 24.7417 46.1531 26.2361 49.142C27.7306 51.3836 27.7306 50.6364 26.9834 54.3725C24.7417 55.867 25.4889 58.1087 25.4889 58.1087C23.2472 60.3504 25.4889 61.8448 25.4889 61.8448C35.2028 63.3393 50.1473 63.3393 59.8613 61.8448C59.8613 61.8448 62.1029 60.3504 59.8613 58.1087C59.8613 58.1087 60.6085 55.867 58.3668 54.3725C57.6196 50.6364 57.6196 51.3836 59.114 49.142C60.6085 46.1531 62.8502 46.1531 62.8502 43.1642C50.1473 40.9225 35.2028 40.9225 22.5 43.1642Z" fill="white"/>
<path d="M26.2361 49.1423C31.4667 47.6479 53.8834 47.6479 59.114 49.1423H26.2361Z" fill="white"/>
<path d="M26.9833 54.3728C35.95 52.8783 49.4 52.8783 58.3667 54.3728H26.9833Z" fill="white"/>
<path d="M18.0166 25.2312C19.6673 25.2312 21.0055 23.893 21.0055 22.2423C21.0055 20.5916 19.6673 19.2534 18.0166 19.2534C16.3659 19.2534 15.0277 20.5916 15.0277 22.2423C15.0277 23.893 16.3659 25.2312 18.0166 25.2312Z" fill="white"/>
<path d="M29.9722 20.7478C31.6229 20.7478 32.9611 19.4096 32.9611 17.7589C32.9611 16.1082 31.6229 14.77 29.9722 14.77C28.3215 14.77 26.9833 16.1082 26.9833 17.7589C26.9833 19.4096 28.3215 20.7478 29.9722 20.7478Z" fill="white"/>
<path d="M42.6751 19.2532C44.3258 19.2532 45.664 17.915 45.664 16.2643C45.664 14.6136 44.3258 13.2754 42.6751 13.2754C41.0243 13.2754 39.6862 14.6136 39.6862 16.2643C39.6862 17.915 41.0243 19.2532 42.6751 19.2532Z" fill="white"/>
<path d="M55.3779 20.7478C57.0287 20.7478 58.3668 19.4096 58.3668 17.7589C58.3668 16.1082 57.0287 14.77 55.3779 14.77C53.7272 14.77 52.389 16.1082 52.389 17.7589C52.389 19.4096 53.7272 20.7478 55.3779 20.7478Z" fill="white"/>
<path d="M67.3335 25.2312C68.9842 25.2312 70.3224 23.893 70.3224 22.2423C70.3224 20.5916 68.9842 19.2534 67.3335 19.2534C65.6828 19.2534 64.3446 20.5916 64.3446 22.2423C64.3446 23.893 65.6828 25.2312 67.3335 25.2312Z" fill="white"/>
</mask>
<g mask="url(#mask0_2565_569)">
<rect x="13.2928" y="13.2754" width="58.7645" height="49.6906" fill="url(#paint0_linear_2565_569)"/>
</g>
<defs>
<linearGradient id="paint0_linear_2565_569" x1="42.6751" y1="13.2754" x2="42.6751" y2="62.9659" gradientUnits="userSpaceOnUse">
<stop stop-color="#BDF1DB"/>
<stop offset="1" stop-color="#5DAD69"/>
</linearGradient>
</defs>
</svg>
