<svg width="70" height="80" viewBox="0 0 70 80" fill="none" xmlns="http://www.w3.org/2000/svg">
<path d="M38.2843 1.66963C38.4335 1.81059 38.59 1.91685 38.758 2.00213C39.568 2.38623 40.9272 1.72655 41.7839 2.51433C42.7802 3.42998 42.4535 4.32863 43.8598 4.95822C45.2624 5.58562 46.2182 6.93624 46.9972 6.96947C47.7774 7.00326 47.2222 8.02674 48.176 8.31777C49.13 8.60892 49.5454 9.047 50.06 9.8135C50.5753 10.5804 52.6005 12.2245 53.645 12.3294C54.6893 12.4342 55.1749 13.6864 55.6205 14.1896C55.761 14.3474 55.8516 14.4999 55.9088 14.6354C55.933 14.6929 55.9131 14.769 55.8738 14.8319C55.8738 14.832 55.8738 14.832 55.8738 14.8321C55.8249 14.9104 55.746 14.9682 55.6842 14.9433C55.3836 14.8225 54.8969 14.6949 54.239 14.679C53.0124 14.6494 53.2804 14.0034 51.9001 13.5201C50.5223 13.0384 49.454 13.1277 48.2513 11.8881C47.0479 10.6482 45.8017 11.9163 44.3136 9.82808C42.8256 7.74 41.6525 9.14754 39.5241 8.1037C38.4122 7.55786 37.343 6.64163 36.3937 5.79029C35.9596 5.27108 35.3429 4.91072 34.915 4.92336C34.2562 4.93192 33.4876 5.18607 32.7578 5.60527C32.3196 5.86313 31.8583 6.11095 31.3745 6.33611C29.5335 7.19282 27.7345 9.01623 25.6166 9.82327C23.4988 10.6303 20.5385 11.8261 19.1118 12.2829C17.6852 12.7398 17.3409 12.8567 16.2671 13.7806C15.6498 14.3117 14.6445 14.7925 13.6027 14.8873C13.0784 14.935 12.997 14.6004 13.3178 14.2179C13.787 13.6584 14.3515 13.4893 14.4401 12.9534C14.6171 11.8825 14.7102 11.4561 15.7269 11.387C16.7435 11.3179 16.5358 10.1747 17.048 10.0043C17.5603 9.83401 17.8885 10.3812 19.9015 8.55849C21.9146 6.73576 23.094 5.85905 23.8922 5.22676C24.6903 4.59446 26.7778 3.9547 28.0747 2.91781C28.5955 2.50142 29.3823 1.99315 30.2008 1.46991C31.9183 0.336193 34.1226 0.0764154 35.2852 0.00550795C37.2757 -0.0731752 37.1824 0.723819 38.2843 1.66963ZM29.3105 73.312C27.0299 73.6696 25.906 75.9168 23.2028 76.5769C20.4997 77.237 19.8045 76.486 16.869 77.7112C16.1467 78.0127 15.4077 78.2655 14.6858 78.4875C11.6255 79.4673 8.99219 78.0741 7.74095 77.5514C5.99252 76.7008 6.5213 75.7936 5.23219 73.7667C5.12911 73.5778 5.04011 73.3914 4.96216 73.2041C4.26656 71.6225 4.0587 70.4766 3.89136 68.8441C3.70825 67.0582 2.34875 61.8304 1.30152 60.1091C0.254288 58.3877 0.329018 56.0121 0.0950436 54.674C0.0221645 54.2572 -0.00228579 53.9185 0.000161119 53.652C0.00123234 53.5391 0.0573947 53.4688 0.127911 53.4458C0.127957 53.4458 0.128002 53.4458 0.128048 53.4458C0.215875 53.4173 0.325918 53.4622 0.379535 53.5895C0.639808 54.2072 1.0904 55.1105 1.7733 56.1286C3.04663 58.0271 2.4647 58.4688 3.68742 61.1937C4.91014 63.9186 6.07146 65.4171 6.75664 68.8681C7.05248 70.3581 7.57454 71.247 8.1197 72.1782C8.78554 72.9968 9.26862 73.608 10.8234 74.7993C11.8456 75.4777 12.86 75.3359 13.4843 74.9703C15.2322 74.0827 16.2185 72.8558 19.2312 71.6586C23.4 70.002 28.9166 68.9765 31.9627 68.023C32.3694 67.8926 32.7541 67.7972 33.1078 67.7231C34.3714 67.4559 35.8621 67.4562 37.352 67.931C39.6566 68.6415 42.2909 69.4918 44.9548 70.5748C48.2074 71.8972 52.2993 72.8849 56.0341 74.2819C56.4808 74.4583 56.9415 74.5637 57.4188 74.6059C58.7566 74.7708 60.6035 73.9164 61.3411 72.2416C62.4442 69.6579 63.4883 67.2345 64.1722 65.7554C65.452 62.9871 65.7577 62.3104 66.4482 59.4698C66.845 57.8375 67.6728 55.6774 68.7189 53.9697C69.246 53.1084 69.4889 53.4206 69.3326 54.4085C69.1037 55.8544 68.5923 56.9331 68.7514 57.7676C69.0698 59.434 69.1726 60.133 68.14 61.7705C67.1074 63.4086 67.8627 64.584 67.4062 65.5863C66.9496 66.5885 66.3484 66.3741 65.0967 71.817C64.9744 72.3496 64.8545 72.8631 64.7411 73.3464C62.7869 79.5048 57.22 79.7382 54.9169 79.1179C54.7608 79.0811 54.5989 79.0361 54.4289 78.9809C52.3152 78.309 48.5787 76.5191 45.4424 75.6477C43.0328 74.9781 38.9139 73.5105 35.7813 72.5289C35.0832 72.3217 34.4311 72.4003 34.0294 72.568C33.8571 72.6387 33.7115 72.7046 33.5815 72.7616C31.7451 73.486 31.3266 72.996 29.3105 73.312Z" fill="#775732"/>
<mask id="mask0_2565_275" style="mask-type:alpha" maskUnits="userSpaceOnUse" x="7" y="10" width="56" height="56">
<path fill-rule="evenodd" clip-rule="evenodd" d="M34.6416 20.4007V11.0786V20.4007ZM30.5022 14.3902H38.7811H30.5022Z" fill="url(#paint0_linear_2565_275)"/>
<path d="M34.6416 20.4007V11.0786M30.5022 14.3902H38.7811" stroke="url(#paint1_linear_2565_275)" stroke-width="2" stroke-linecap="round"/>
<path fill-rule="evenodd" clip-rule="evenodd" d="M34.6417 41.5691C34.6417 41.5691 42.0927 29.1507 39.609 24.1834C39.609 24.1834 37.9533 20.0439 34.6417 20.0439C31.3301 20.0439 29.6744 24.1834 29.6744 24.1834C27.1907 29.1507 34.6417 41.5691 34.6417 41.5691Z" fill="url(#paint2_linear_2565_275)"/>
<path fill-rule="evenodd" clip-rule="evenodd" d="M18.0839 61.4383C27.1907 67.2335 42.0927 67.2335 51.1995 61.4383V49.8478C51.1995 49.8478 66.1015 42.3968 61.1342 32.4621C54.511 21.6996 38.7811 26.6669 34.6417 39.0853C30.5022 26.6669 14.7723 21.6996 8.14918 32.4621C3.18184 42.3968 18.0839 49.8478 18.0839 49.8478V61.4383Z" fill="url(#paint3_linear_2565_275)"/>
</mask>
<g mask="url(#mask0_2565_275)">
<rect x="5.35944" y="8.66455" width="58.5645" height="58.5645" fill="url(#paint4_linear_2565_275)"/>
</g>
<defs>
<linearGradient id="paint0_linear_2565_275" x1="34.6416" y1="11.0786" x2="34.6416" y2="20.4007" gradientUnits="userSpaceOnUse">
<stop stop-color="#E2C9A8"/>
<stop offset="1" stop-color="#BA946F"/>
</linearGradient>
<linearGradient id="paint1_linear_2565_275" x1="34.6416" y1="11.0786" x2="34.6416" y2="20.4007" gradientUnits="userSpaceOnUse">
<stop stop-color="#F3DFBF"/>
<stop offset="1" stop-color="#E4CCAB"/>
</linearGradient>
<linearGradient id="paint2_linear_2565_275" x1="34.6417" y1="20.0439" x2="34.6417" y2="41.5691" gradientUnits="userSpaceOnUse">
<stop stop-color="#EAD4B3"/>
<stop offset="1" stop-color="#D5B895"/>
</linearGradient>
<linearGradient id="paint3_linear_2565_275" x1="34.6417" y1="26.5527" x2="34.6417" y2="65.7847" gradientUnits="userSpaceOnUse">
<stop stop-color="#E2C9A8"/>
<stop offset="1" stop-color="#BA946F"/>
</linearGradient>
<linearGradient id="paint4_linear_2565_275" x1="34.6417" y1="8.66455" x2="34.6417" y2="67.2291" gradientUnits="userSpaceOnUse">
<stop stop-color="#F7E1B5"/>
<stop offset="1" stop-color="#BA945C"/>
</linearGradient>
</defs>
</svg>
