<svg width="72" height="56" viewBox="0 0 72 56" fill="none" xmlns="http://www.w3.org/2000/svg">
<path d="M9.2629 8.26562L6.58893 3.63418L11.9369 3.63418L9.2629 8.26562Z" fill="#775732"/>
<path d="M12.3505 17.5107L9.67652 12.8793L15.0244 12.8793L12.3505 17.5107Z" fill="#775732"/>
<path d="M3.0876 28.8188L0.413639 24.1874L5.76157 24.1874L3.0876 28.8188Z" fill="#775732"/>
<path d="M10.8712 52.0991L8.19727 47.4677L13.5452 47.4677L10.8712 52.0991Z" fill="#775732"/>
<path d="M45.819 45.9233L43.1451 41.2919L48.493 41.2919L45.819 45.9233Z" fill="#775732"/>
<path d="M54.4124 52.0991L51.7384 47.4677L57.0863 47.4677L54.4124 52.0991Z" fill="#775732"/>
<path d="M67.2585 33.6816L64.5845 29.0502L69.9325 29.0502L67.2585 33.6816Z" fill="#775732"/>
<path d="M60.5876 21.0356L57.9136 16.4042L63.2616 16.4042L60.5876 21.0356Z" fill="#775732"/>
<path d="M57.5 8.26562L54.826 3.63418L60.1739 3.63418L57.5 8.26562Z" fill="#775732"/>
<path d="M68.2805 14.4233L65.6066 9.7919L70.9545 9.7919L68.2805 14.4233Z" fill="#775732"/>
<path d="M3.0876 20.5986L0.413639 15.9672L5.76157 15.9672L3.0876 20.5986Z" fill="#775732"/>
<path d="M21.2436 53.8804L18.5696 49.2489L23.9176 49.2489L21.2436 53.8804Z" fill="#775732"/>
<mask id="mask0_2565_314" style="mask-type:alpha" maskUnits="userSpaceOnUse" x="7" y="0" width="57" height="56">
<path fill-rule="evenodd" clip-rule="evenodd" d="M35.6588 5.24707C54.0241 6.99615 64.5186 19.2397 63.6441 55.9704H23.4152C23.4152 40.2287 40.906 44.6014 37.4079 19.2397" fill="url(#paint0_linear_2565_314)"/>
<path fill-rule="evenodd" clip-rule="evenodd" d="M39.1569 19.2399C39.8216 24.3297 29.4495 32.1306 25.1643 34.9816C19.917 38.4798 20.2319 42.5726 16.4189 41.978C14.5963 40.3338 18.8851 36.6607 16.4189 36.7307C14.6698 36.7307 16.7512 38.8821 14.6698 40.2289C12.9207 40.2289 7.66822 41.978 7.67347 33.2325C7.67347 29.7344 18.168 12.2436 18.168 12.2436C18.168 12.2436 21.4737 8.92031 21.6661 6.12178C20.3893 4.3832 20.7916 2.62362 20.7916 0.874541C22.5407 -0.874541 26.0388 5.24724 26.0388 5.24724H29.537C29.537 5.24724 30.9013 1.76307 33.9097 0C35.6588 0 35.6588 5.24724 35.6588 5.24724" fill="url(#paint1_linear_2565_314)"/>
</mask>
<g mask="url(#mask0_2565_314)">
<rect x="6.84235" width="57.6834" height="56.0615" fill="url(#paint2_linear_2565_314)"/>
</g>
<defs>
<linearGradient id="paint0_linear_2565_314" x1="43.555" y1="5.24707" x2="43.555" y2="55.9704" gradientUnits="userSpaceOnUse">
<stop stop-color="#F7E5C6"/>
<stop offset="1" stop-color="#B7916C"/>
</linearGradient>
<linearGradient id="paint1_linear_2565_314" x1="23.4304" y1="0" x2="23.4304" y2="42.036" gradientUnits="userSpaceOnUse">
<stop stop-color="#F7E5C6"/>
<stop offset="1" stop-color="#B7916C"/>
</linearGradient>
<linearGradient id="paint2_linear_2565_314" x1="35.6841" y1="0" x2="35.6841" y2="56.0615" gradientUnits="userSpaceOnUse">
<stop stop-color="#F7E1B5"/>
<stop offset="1" stop-color="#BA945C"/>
</linearGradient>
</defs>
</svg>
