<svg width="84" height="90" viewBox="0 0 84 90" fill="none" xmlns="http://www.w3.org/2000/svg">
<path d="M37.2039 0C32.2773 0 28.2869 3.99038 28.2869 8.91705C28.2869 10.9011 28.9334 12.7291 30.0257 14.2227C25.6786 16.7195 22.7137 21.3786 22.7137 26.7511C22.7137 31.2765 24.8092 35.3115 28.0862 37.9643C21.3985 40.3274 11.5674 50.3367 11.5674 67.9925H62.8404C62.8404 50.3367 53.0094 40.3274 46.3216 37.9643C49.5986 35.3115 51.6941 31.2765 51.6941 26.7511C51.6941 21.3786 48.7292 16.7195 44.3821 14.2227C45.4745 12.7291 46.121 10.9011 46.121 8.91705C46.121 3.99038 42.1306 0 37.2039 0Z" fill="url(#paint0_linear_2565_252)"/>
<path d="M11.6682 80.4893C11.6821 80.5399 11.74 80.6312 11.9016 80.7402L11.3781 81.5918C11.0111 81.3868 10.7014 81.0782 10.6858 80.6377L11.6682 80.4893Z" fill="#775732" stroke="#775732"/>
<path d="M74.561 14.6899C74.9549 14.6423 75.2617 14.7659 75.4478 14.8599L75.3208 15.3892L75.6069 15.6226C75.6498 15.57 75.6333 15.5343 75.6372 15.5874C75.641 15.6387 75.6606 15.718 75.7007 15.8198L76.1196 16.8823L75.0552 16.4692C74.8432 16.387 74.703 16.3971 74.6108 16.4565L74.4604 16.5679C74.3226 16.6797 74.2206 16.7907 74.1499 16.8794C74.103 16.9383 74.0697 16.9862 74.0503 17.0171C74.0408 17.0322 74.0349 17.0436 74.0317 17.0493L73.9946 17.1216L73.9761 17.1392C73.9699 17.1493 73.963 17.1619 73.9546 17.1763L73.0386 16.7993C73.1181 16.4912 73.1918 16.1067 73.2065 15.6997L73.2144 15.5063L73.3491 15.3687C73.7586 14.9491 74.1646 14.7379 74.561 14.6899Z" fill="#775732" stroke="#775732"/>
<path d="M73.7699 17.769C73.7667 17.7881 73.7649 17.7992 73.763 17.814L73.7621 17.8228L73.7552 17.8677V17.8706C73.7321 18.0237 73.6962 18.2112 73.6068 18.3638L72.6888 17.9937C72.7197 17.8656 72.7551 17.7124 72.7914 17.5659L73.7699 17.769Z" fill="#775732" stroke="#775732"/>
<path d="M44.9469 60.0518C44.9926 60.0722 45.0321 60.0801 45.0651 60.0801C45.0913 60.08 45.1246 60.0751 45.1569 60.0654V60.0664C45.2271 60.0451 45.3564 60.0095 45.5153 59.9893L45.5348 59.9697H45.7408C45.861 59.9697 46.2002 59.9652 46.5162 60.2285C46.8243 60.4853 47.0165 60.914 47.0963 61.5381L47.1315 61.8096L46.9205 61.9854C42.0254 66.0691 37.1872 69.5582 34.5231 70.9932C32.5121 72.0766 27.4026 74.49 22.8141 76.625C20.516 77.6943 18.3425 78.6969 16.7438 79.4316C15.9444 79.799 15.2886 80.0999 14.8326 80.3086C14.6048 80.4129 14.4264 80.4935 14.3053 80.5488C14.2977 80.5523 14.29 80.5553 14.2828 80.5586C13.9014 81.2783 13.2689 81.5937 12.7867 81.7246L12.6549 81.7607L12.5221 81.7246C12.2974 81.6624 11.9679 81.5504 11.6813 81.3906C11.5387 81.3111 11.3836 81.2069 11.2574 81.0732C11.1318 80.9401 10.9999 80.7397 10.9908 80.4785V80.4775C10.9846 80.2876 11.0669 80.1392 11.1237 80.0557C11.186 79.9638 11.2645 79.8822 11.3405 79.8135C11.4935 79.675 11.6965 79.533 11.9186 79.3955C12.3674 79.1177 12.9623 78.8161 13.569 78.5479L13.6656 78.5049H13.6979C13.7225 78.4956 13.7525 78.4842 13.7877 78.4707C13.904 78.4261 14.0776 78.3581 14.3043 78.2676C14.7577 78.0866 15.424 77.8133 16.2721 77.4453C17.9686 76.7093 20.3928 75.5948 23.2936 74.084C29.0964 71.0617 36.803 66.4564 44.4235 60.124L44.6627 59.9248L44.9469 60.0518Z" fill="#775732" stroke="#775732"/>
<path d="M75.0056 12.7495C75.3358 12.5876 75.8677 12.4336 76.4147 12.7095L76.5309 12.7769C76.7848 12.9453 76.9229 13.195 76.9489 13.4712C76.9746 13.7444 76.8876 14.0009 76.8054 14.1821C76.7187 14.3731 76.6091 14.5423 76.5261 14.6587C76.4838 14.7179 76.4463 14.7666 76.4186 14.8013C76.4079 14.8148 76.3979 14.8263 76.3903 14.8354C76.3829 14.8462 76.3737 14.8603 76.362 14.8765C76.3347 14.9142 76.2953 14.9662 76.2458 15.0269C76.1476 15.1472 76.003 15.3075 75.821 15.4644L75.4714 15.7661L75.1989 15.4956C75.0939 15.4378 74.9648 15.3749 74.8034 15.3608C74.6379 15.3465 74.3883 15.3778 74.0612 15.6343L72.988 16.4761L73.2634 15.1401C73.3826 14.5614 73.6852 14.0592 73.9372 13.7173C74.0658 13.5428 74.1876 13.4008 74.278 13.3022C74.3234 13.2528 74.362 13.2135 74.3893 13.186L74.4313 13.144C74.4326 13.1428 74.4344 13.1419 74.4352 13.1411L74.4382 13.1382C74.441 13.1355 74.4448 13.1322 74.4489 13.1284C74.4574 13.1205 74.4691 13.1104 74.4831 13.0981C74.5111 13.0736 74.5498 13.0406 74.5983 13.0034C74.6947 12.9296 74.835 12.8331 75.0056 12.7495Z" fill="#775732" stroke="#775732"/>
<path d="M74.2399 15.8979C74.5973 15.6547 74.9966 15.733 75.2272 15.811C75.4288 15.8792 75.6034 15.9837 75.7175 16.0571L75.7536 16.0767C75.931 16.1766 76.0874 16.337 76.1481 16.5659C76.2049 16.7805 76.1563 16.977 76.0974 17.1177C75.9849 17.3859 75.7585 17.6295 75.57 17.8071C75.3682 17.9973 75.1473 18.1691 74.9811 18.2905C74.94 18.3206 74.9004 18.3463 74.8659 18.3706C74.835 18.5139 74.782 18.7525 74.6862 19.1499C74.4755 20.0241 74.0614 21.6788 73.2458 24.8052C72.3975 28.0554 70.1186 32.7708 67.2888 37.6118C64.4526 42.4636 61.0363 47.4873 57.8786 51.3608L57.4499 51.8862L57.0739 51.3208C56.9271 51.1 56.6765 50.9 56.3581 50.728C56.0443 50.5586 55.6986 50.4337 55.402 50.3472L54.6784 50.1362L55.154 49.5522C60.4441 43.0539 66.16 33.923 69.5573 27.0415C70.5753 24.978 71.1179 23.7152 71.5134 22.5288C71.9107 21.3368 72.1626 20.2132 72.5934 18.4028L72.6784 18.0464L73.028 18.021C73.029 18.0192 73.0308 18.0173 73.0319 18.0151C73.0442 17.9912 73.0566 17.9555 73.0681 17.9087C73.0793 17.8626 73.0864 17.8169 73.0934 17.769L73.0944 17.7642L73.1013 17.7222L73.1022 17.7163C73.1087 17.6783 73.1117 17.6503 73.114 17.6294C73.1163 17.6069 73.1178 17.5917 73.1198 17.5659C73.1236 17.5122 73.1267 17.4483 73.1608 17.3403C73.2173 17.1596 73.2854 17.0126 73.3415 16.9058C73.3892 16.8148 73.4571 16.7061 73.4382 16.7388L73.446 16.7251C73.4429 16.7301 73.4405 16.7342 73.4401 16.7349L73.4391 16.7358L73.4587 16.7026L73.4714 16.6802L73.4753 16.6763C73.4793 16.6699 73.4834 16.6629 73.488 16.6558C73.5216 16.6032 73.5695 16.5325 73.6345 16.4517C73.7641 16.2904 73.9617 16.0855 74.2399 15.897V15.8979Z" fill="#775732" stroke="#775732"/>
<path d="M10.7338 80.54C10.7303 80.6409 10.7395 80.7397 10.768 80.835L10.8032 80.9297L10.8041 80.9316C10.8518 81.0367 10.9278 81.1323 11.0434 81.2207L11.4995 81.5703L11.0912 81.9736C11.0488 82.0156 11.0105 82.0699 10.9868 82.1592C10.8717 82.5987 10.5628 82.887 10.3354 83.0498C10.2166 83.1348 10.1044 83.1963 10.0219 83.2373C9.98026 83.258 9.94457 83.274 9.9184 83.2852C9.90536 83.2907 9.89459 83.2955 9.88617 83.2988C9.88209 83.3005 9.87832 83.3016 9.87543 83.3027C9.87403 83.3033 9.87262 83.3043 9.87152 83.3047H9.86957L9.86859 83.3057L9.80121 83.3311L9.72894 83.3359H9.72601C9.72507 83.336 9.7241 83.3369 9.72308 83.3369C9.72097 83.337 9.71867 83.3368 9.71625 83.3369C9.71103 83.3372 9.70429 83.3377 9.69769 83.3379C9.68466 83.3382 9.66892 83.3375 9.65082 83.3369C9.61423 83.3358 9.56603 83.3327 9.51117 83.3232C9.4027 83.3045 9.25516 83.2609 9.10687 83.1611C8.77757 82.9395 8.58246 82.5385 8.59906 81.9609V81.96C8.61253 81.5041 8.86886 81.1147 9.11664 80.834C9.37475 80.5416 9.69013 80.2924 9.94769 80.1123L10.769 79.5391L10.7338 80.54Z" fill="#775732" stroke="#775732"/>
<path d="M48.4936 56.3521C48.6642 56.5434 48.8348 56.7768 48.9825 57.0556C49.455 57.0946 49.9866 57.1983 50.5739 57.3896C50.5411 56.7282 50.377 56.2029 50.1638 55.7944C49.3238 55.882 48.7692 56.1673 48.4936 56.3489V56.3521Z" fill="#775732"/>
<path d="M49.9931 55C50.1047 55.1297 50.2163 55.2756 50.318 55.441C50.7609 55.415 51.2663 55.441 51.8405 55.5545C51.7617 55.1135 51.6206 54.7471 51.45 54.4424C50.7052 54.5623 50.2228 54.8379 49.9931 54.9968V55Z" fill="#775732"/>
<path d="M47.2106 57.5648C47.4567 57.8404 47.6995 58.2003 47.8767 58.6639C48.2541 58.7158 48.6708 58.8033 49.1236 58.933C49.1105 58.304 48.9825 57.7918 48.7988 57.3833C48.1491 57.3508 47.6208 57.4384 47.2139 57.5648H47.2106Z" fill="#775732"/>
<path d="M49.9045 59.5426C49.747 59.481 49.5895 59.4259 49.4386 59.374C49.4255 59.5945 49.4025 59.8214 49.3631 60.0646C49.5305 59.9057 49.7077 59.7339 49.9013 59.5426H49.9045Z" fill="#775732"/>
<path d="M53.2514 54.4845C52.7002 54.384 52.2145 54.3678 51.7978 54.4035C51.9717 54.7439 52.1128 55.1524 52.1883 55.6355C52.5328 55.723 52.9003 55.843 53.2875 55.9986C53.3564 55.415 53.3334 54.9157 53.2514 54.4878V54.4845Z" fill="#775732"/>
<path d="M52.9791 53.0001C53.1956 53.3178 53.3892 53.7101 53.5106 54.1964C53.865 54.2742 54.2423 54.3845 54.6459 54.5369C54.6755 54.0116 54.6262 53.5577 54.5311 53.1719C53.9437 53.0325 53.4253 52.9839 52.9791 53.0001Z" fill="#775732"/>
<path d="M53.1661 54.1282C53.0316 53.6678 52.8314 53.3047 52.6149 53.0259C52.103 53.081 51.6961 53.2107 51.3975 53.3469C51.3286 53.4149 51.2597 53.483 51.1908 53.5511C51.3319 53.697 51.4763 53.8721 51.6108 54.0796C52.0538 54.0277 52.5722 54.031 53.1661 54.1315V54.1282Z" fill="#775732"/>
<path d="M47.6503 58.9685C47.2303 58.9231 46.8628 58.9231 46.5478 58.9523C46.7447 59.3641 46.8891 59.8731 46.9284 60.4859C46.9481 60.5183 46.9678 60.554 46.9842 60.5896C47.2336 60.528 47.5158 60.4826 47.8308 60.4632C47.8538 59.8731 47.7816 59.3803 47.6503 58.9685Z" fill="#775732"/>
<path d="M54.6131 54.8739C54.2522 54.7345 53.9109 54.6307 53.5894 54.5562C53.6517 54.929 53.6681 55.3472 53.632 55.8174C53.993 55.4672 54.3244 55.1495 54.6131 54.8739Z" fill="#775732"/>
<path d="M46.0425 58.6869C45.9966 58.6155 45.9474 58.5474 45.8981 58.4858C45.803 58.5896 45.7078 58.6901 45.6192 58.7906C45.7439 58.7517 45.8883 58.716 46.0425 58.6869Z" fill="#775732"/>
<path d="M49.4452 59.0334C49.6716 59.108 49.9078 59.1923 50.1539 59.2928C50.2392 59.2052 50.3278 59.1144 50.4197 59.0237C50.5247 58.5535 50.5739 58.1256 50.5805 57.743C50.0555 57.5679 49.5764 57.4642 49.1466 57.4155C49.3238 57.8565 49.4419 58.3914 49.4452 59.0366V59.0334Z" fill="#775732"/>
<path d="M53.8125 51.3301C54.367 51.3139 55.0298 51.4241 55.7648 51.7937C55.4859 51.0578 55.0331 50.6136 54.6984 50.3672C54.5541 50.4061 54.203 50.5552 53.573 51.1226C53.6484 51.181 53.7305 51.2523 53.8158 51.3301H53.8125Z" fill="#775732"/>
<path d="M56.2734 52.4813C56.3095 52.7017 56.3325 52.9417 56.3358 53.1945C56.4408 53.0713 56.5491 52.9287 56.6541 52.7731C56.5261 52.6661 56.3981 52.5688 56.2734 52.478V52.4813Z" fill="#775732"/>
<path d="M50.5017 55.7754C50.7216 56.2293 50.8824 56.7999 50.9021 57.5067C51.135 57.591 51.3746 57.6915 51.6206 57.805C51.6699 57.7531 51.7191 57.7045 51.7683 57.6559C51.9094 56.9847 51.9356 56.4076 51.8897 55.9116C51.3713 55.8013 50.9053 55.7657 50.5017 55.7786V55.7754Z" fill="#775732"/>
<path d="M47.5224 58.6249C47.3452 58.2197 47.1155 57.9084 46.8924 57.6782C46.7447 57.7398 46.6233 57.8014 46.5183 57.8598C46.387 57.9862 46.2525 58.1192 46.118 58.2586C46.2066 58.3721 46.2952 58.4985 46.3805 58.6379C46.7086 58.599 47.0892 58.5893 47.5224 58.6282V58.6249Z" fill="#775732"/>
<path d="M55.9191 53.6417C55.5516 53.4829 55.207 53.3596 54.8789 53.2656C54.9577 53.6352 54.9937 54.0567 54.9741 54.5301C55.4827 54.047 55.8206 53.7357 55.9191 53.645V53.6417Z" fill="#775732"/>
<path d="M52.2244 55.9893C52.2539 56.3686 52.2408 56.7868 52.1719 57.2505C52.5098 56.9133 52.838 56.5923 53.1431 56.2908C52.8216 56.1643 52.5131 56.0638 52.2244 55.9893Z" fill="#775732"/>
<path d="M48.5395 60.8102C48.3984 60.8005 48.2639 60.794 48.1327 60.7972C48.1228 60.9172 48.1064 61.0436 48.09 61.1733C48.2212 61.0761 48.3689 60.9593 48.5395 60.8134V60.8102Z" fill="#775732"/>
<path d="M47.8045 60.8071C47.5519 60.8233 47.3222 60.8622 47.1155 60.9076C47.1745 61.0892 47.2238 61.2999 47.2533 61.5463C47.2533 61.5463 47.3091 61.6631 47.7159 61.4231C47.7586 61.2059 47.7881 61.0017 47.8078 60.8071H47.8045Z" fill="#775732"/>
<path d="M48.8873 60.5056C48.9103 60.4861 48.9333 60.4634 48.9562 60.444C49.0514 60.016 49.1006 59.6269 49.117 59.2735C48.7102 59.1503 48.3361 59.0693 47.9948 59.0142C48.1097 59.4227 48.172 59.9025 48.1556 60.4537C48.3853 60.4537 48.6281 60.4731 48.8906 60.5056H48.8873Z" fill="#775732"/>
<path d="M56.1717 52.0238C56.385 52.1567 56.6048 52.3123 56.8247 52.4939C57.0314 52.1178 57.1397 51.7157 56.9461 51.4142C56.6344 50.9311 55.8305 50.6329 55.2956 50.4805C55.6303 50.8274 55.9716 51.3267 56.1717 52.0238Z" fill="#775732"/>
<path d="M46.5609 60.0773C46.4953 59.6494 46.3706 59.2927 46.2197 58.9912C45.7275 59.069 45.3895 59.2117 45.1992 59.3122C44.9892 59.6072 44.8777 59.8536 44.9499 59.9801C44.9499 59.9801 45.8719 59.5716 46.5609 60.0741V60.0773Z" fill="#775732"/>
<path d="M50.8331 58.6025C51.0169 58.4144 51.2006 58.2296 51.3778 58.048C51.217 57.9767 51.0563 57.9119 50.902 57.8535C50.8955 58.0902 50.8725 58.3366 50.8331 58.6025Z" fill="#775732"/>
<path d="M52.7264 52.6725C53.2088 52.6369 53.7731 52.666 54.4196 52.8054C54.2325 52.2964 53.9635 51.9236 53.701 51.6577C53.363 51.6772 53.0775 51.7485 52.8577 51.8231C52.7953 51.8879 52.733 51.9528 52.6674 52.0241C52.5755 52.1246 52.4803 52.2283 52.3819 52.3288C52.4935 52.4261 52.6083 52.5363 52.7231 52.6693L52.7264 52.6725Z" fill="#775732"/>
<path d="M53.3728 51.369C53.3728 51.369 53.3466 51.3496 53.3367 51.3398C53.3236 51.3528 53.3072 51.3658 53.2941 51.382C53.3203 51.3787 53.3466 51.3723 53.3728 51.369Z" fill="#775732"/>
<path d="M48.615 57.0362C48.4608 56.7768 48.2836 56.5693 48.1163 56.4072C47.7258 56.7541 47.4863 56.9616 47.4863 56.9616C47.4863 56.9616 47.3813 57.0557 47.2139 57.208C47.5946 57.0978 48.0605 57.0265 48.615 57.0362Z" fill="#775732"/>
<path d="M54.7838 52.893C55.1677 52.9967 55.5778 53.1362 56.0142 53.3242C56.0175 52.9157 55.9748 52.5558 55.8994 52.2381C55.2398 51.849 54.6361 51.6901 54.1209 51.6577C54.3769 51.969 54.6197 52.3742 54.7838 52.893Z" fill="#775732"/>
<path d="M49.9702 55.4739C49.8553 55.3085 49.7372 55.1659 49.6191 55.0459C49.3205 55.3215 49.0383 55.5809 48.7823 55.8111C49.0842 55.6716 49.478 55.5387 49.9734 55.4706L49.9702 55.4739Z" fill="#775732"/>
<path d="M51.2531 54.1315C51.1547 53.9954 51.0563 53.8787 50.9578 53.7749C50.7117 54.0148 50.4656 54.2483 50.2261 54.4752C50.4853 54.3455 50.8266 54.2126 51.2564 54.1283L51.2531 54.1315Z" fill="#775732"/>
<path d="M52.3425 52.718C52.2835 52.6596 52.2277 52.6077 52.1686 52.5591C52.0931 52.6401 52.0144 52.7212 51.9356 52.799C52.0636 52.7666 52.1981 52.7374 52.3425 52.7147V52.718Z" fill="#775732"/>
<path d="M75.461 15.1509C75.8227 15.3944 75.9515 15.6744 75.9219 15.939C75.9085 16.058 75.8644 16.1531 75.8262 16.2163C75.8069 16.2482 75.7883 16.274 75.7735 16.2925C75.766 16.3017 75.7592 16.309 75.7539 16.3149C75.7513 16.3178 75.7491 16.3207 75.7471 16.3228L75.7422 16.3276L75.5948 16.4771L75.4219 16.3579L75.4229 16.3589C75.4227 16.3588 75.4219 16.3585 75.4209 16.3579C75.419 16.3566 75.4152 16.3542 75.4102 16.3511C75.4001 16.3447 75.3844 16.3345 75.3633 16.3228C75.3208 16.2991 75.2589 16.2678 75.1836 16.2388C75.0683 16.1943 74.9314 16.1591 74.7901 16.1577L74.6475 16.1685C74.5031 16.193 74.2826 16.3275 74.0879 16.521C73.9952 16.6131 73.9196 16.7075 73.8701 16.7905C73.8455 16.8319 73.8294 16.8671 73.8203 16.894C73.8111 16.9218 73.8117 16.9331 73.8116 16.9312L73.8164 16.9976L73.7862 17.0581C73.7567 17.1177 73.6801 17.3385 73.5977 17.5894C73.5186 17.8302 73.4432 18.0702 73.4209 18.144L73.3643 18.3335L73.166 18.3208C73.0841 18.3156 72.9805 18.3262 72.8838 18.3403C72.8819 18.4306 72.861 18.5224 72.8096 18.6099V18.6108C72.6859 18.819 72.4671 18.8988 72.2539 18.9009C72.2329 18.9666 72.2183 19.0289 72.2129 19.0835C72.2081 19.1325 72.212 19.1639 72.2168 19.1802C72.2187 19.1863 72.2203 19.1892 72.2207 19.1899L72.4219 19.3384L72.2735 19.5396L72.0801 19.8022L71.9336 20.0015L71.7325 19.856C71.6245 19.7777 71.547 19.686 71.4932 19.5874L14.8994 77.6001C14.9292 77.666 14.9502 77.7384 14.9502 77.8188C14.9502 78.0564 14.7964 78.2335 14.628 78.3384C14.4619 78.4417 14.2491 78.4976 14.0254 78.5015C13.9945 78.5214 13.9659 78.5396 13.9405 78.5552C13.9071 78.7411 13.8187 78.873 13.711 78.9585C13.6486 79.008 13.5862 79.0374 13.5391 79.0542C13.5213 79.0605 13.505 79.0643 13.4912 79.0679L12.9034 79.3452L12.8955 79.3481L12.8887 79.3521C12.8883 79.3522 12.8867 79.3517 12.8858 79.3521C12.8839 79.3528 12.881 79.3543 12.877 79.356C12.8689 79.3593 12.8568 79.3649 12.8409 79.3716C12.8089 79.385 12.762 79.4044 12.7051 79.4302C12.5907 79.482 12.4351 79.5571 12.2725 79.6479C12.1092 79.7392 11.9425 79.8441 11.8028 79.9565C11.6598 80.0716 11.5617 80.1811 11.5137 80.2759C11.4119 80.4771 11.4539 80.5981 11.4971 80.6704C11.5227 80.7131 11.5543 80.7477 11.5811 80.771C11.5939 80.7822 11.6048 80.7898 11.6114 80.7944C11.6129 80.7955 11.6143 80.7967 11.6153 80.7974H11.6162L11.6172 80.7983L11.6241 80.8022L11.6319 80.8081L12.0625 81.1128L12.2666 81.2583L12.1211 81.4624C11.9613 81.6865 11.7633 81.8116 11.543 81.8384C11.333 81.8638 11.1422 81.7949 10.9971 81.7144C10.8502 81.6328 10.7276 81.5267 10.6446 81.4458C10.6024 81.4047 10.5687 81.3681 10.545 81.3413C10.5331 81.328 10.5234 81.3171 10.5166 81.3091C10.5134 81.3052 10.5108 81.3018 10.5088 81.2993L10.5049 81.2954V81.2944L10.501 81.2896L10.5 81.2886L10.4991 81.2866C10.4984 81.2857 10.497 81.2848 10.4961 81.2837C10.4944 81.2813 10.4925 81.2782 10.4903 81.2749C10.4856 81.2681 10.4801 81.2591 10.4737 81.2485C10.4607 81.2274 10.4446 81.1988 10.4278 81.1626C10.3941 81.09 10.3567 80.9874 10.335 80.856C10.2912 80.5902 10.3121 80.2216 10.5215 79.7612L10.5225 79.7603C10.7556 79.2525 11.3158 78.921 11.7559 78.7231C11.9843 78.6205 12.199 78.5458 12.3565 78.4966C12.3841 78.4879 12.4106 78.4803 12.4346 78.4731C12.4555 78.3936 12.4947 78.324 12.5362 78.2671C12.6178 78.1552 12.7307 78.0642 12.8301 77.9966C12.9099 77.9423 12.9907 77.8962 13.0586 77.8608C13.0577 77.8481 13.0557 77.835 13.0557 77.8218C13.0558 77.6346 13.1543 77.4832 13.2754 77.3794C13.3768 77.2925 13.5043 77.2304 13.6416 77.1909C13.7551 77.0767 13.9982 76.758 13.9229 76.1001L13.8946 75.8501L14.1446 75.8228L14.4698 75.7866L14.7159 75.7603L14.7451 76.0063C14.7526 76.0692 14.7555 76.1305 14.7588 76.1899L71.3301 18.1274C71.3217 18.0181 71.3397 17.9046 71.4004 17.8003L71.4014 17.7993C71.5303 17.5803 71.7685 17.5033 71.9903 17.5103C72.3132 17.1957 72.6705 16.8204 72.8565 16.5298L72.8575 16.5288C73.225 15.9625 73.2825 15.7863 73.6133 15.4595C73.7833 15.2915 74.0453 15.0907 74.3643 14.9927C74.581 14.9261 74.8228 14.9099 75.0713 14.978V14.8882L75.461 15.1509Z" fill="#775732" stroke="#775732" stroke-width="0.5"/>
<defs>
<linearGradient id="paint0_linear_2565_252" x1="37.2039" y1="0" x2="37.2039" y2="67.9925" gradientUnits="userSpaceOnUse">
<stop stop-color="#F7E1B5"/>
<stop offset="1" stop-color="#BA945C"/>
</linearGradient>
</defs>
</svg>
