<svg width="85" height="87" viewBox="0 0 85 87" fill="none" xmlns="http://www.w3.org/2000/svg">
<path d="M45.7784 1.57417C46.8713 2.56406 48.7055 2.255 49.733 3.69444C50.6799 5.10385 50.1818 5.77147 51.387 7.06102C52.5627 8.34857 53.1938 9.94366 53.9168 10.1816C54.6001 10.3825 54.0218 11.2092 54.908 11.5279C55.7708 11.7579 56.0315 11.9413 56.7897 12.2037C57.5453 12.6472 60.1888 11.2244 60.5739 10.1467C61.0334 9.1517 62.2798 8.69278 62.8555 8.21129C63.0361 8.06027 63.2032 7.9525 63.347 7.87903C63.408 7.8479 63.4753 7.8624 63.5247 7.89948C63.5248 7.89951 63.5248 7.89953 63.5248 7.89955C63.5864 7.94569 63.6201 8.02699 63.5798 8.09642C63.3826 8.43561 63.1459 8.94628 62.9533 9.61177C62.5062 10.9199 62.0384 10.6418 60.964 11.9852C59.8387 13.2181 59.0728 14.6822 56.3854 14.4872C54.0865 13.9544 52.5529 14.5079 51.0001 11.7635C49.7694 9.07568 48.4914 9.67881 46.732 7.80578C45.0523 5.88772 43.518 3.93837 42.3648 4.12415C42.3579 4.12456 42.3509 4.12499 42.3438 4.12545C41.3637 4.16226 40.1456 4.97313 38.6017 6.38089C37.0245 7.76248 35.9075 10.426 33.8865 12.3187C32.8729 13.2298 31.5472 14.4696 29.7136 15.0206C27.7948 15.6284 26.056 14.6781 25.4146 14.0729C24.0732 12.7908 23.9049 12.388 22.7207 11.2618C22.0432 10.5795 21.4008 9.453 21.1703 8.32032C21.0447 7.7328 21.349 7.71235 21.7489 8.11767C22.329 8.69753 22.5577 9.26448 23.0802 9.41699C24.0833 9.65172 24.4849 9.76491 24.7664 10.7007C25.1304 11.705 26.0731 11.3161 26.3421 11.6568C26.4951 11.8349 26.5081 12.0429 26.7375 12.2822C26.9794 12.5098 27.5401 12.8783 28.3408 12.4993C29.952 11.525 30.843 9.78107 31.4368 8.95902C32.0361 8.05069 33.776 6.34737 34.9391 4.6912C35.895 3.04572 39.7397 -0.0667515 42.3438 0.018321C42.355 0.0169871 42.3661 0.0156674 42.3771 0.0143607C44.5959 -0.113612 44.5634 0.637522 45.7784 1.57417ZM76.9733 60.6543C76.6368 59.1901 74.7702 58.923 73.9808 57.2764C73.1664 55.6034 73.6497 54.9526 72.3326 53.195C70.9949 51.4219 70.3953 49.1277 69.7844 48.106C69.462 47.5941 69.5475 47.1818 69.674 46.7524C69.8231 46.2843 69.8973 45.8307 70.1524 44.8061C70.4714 43.7292 71.2783 43.1476 71.9025 42.8925C72.2696 42.7404 72.54 42.6884 72.8724 42.6456C73.0358 42.6261 73.2059 42.6142 73.3855 42.6095C73.5448 42.6093 73.6932 42.6187 73.86 42.6316C75.2548 42.6337 78.8618 43.169 80.2877 43.0127C80.946 42.9072 81.6885 43.095 82.3408 43.3492C82.9355 43.593 83.4967 43.9094 83.9436 44.0776C84.2219 44.1823 84.4404 44.2954 84.6052 44.4008C84.675 44.4455 84.6977 44.514 84.6854 44.5746C84.6854 44.5746 84.6854 44.5747 84.6854 44.5747C84.67 44.6501 84.6003 44.7131 84.5015 44.703C84.0219 44.6541 83.3093 44.6409 82.5084 44.7816C80.9745 45.0486 80.9152 44.4359 78.8843 44.4632C76.9422 44.556 75.6859 44.9297 73.7276 44.9663C72.749 45.0252 72.5807 45.6488 72.7588 45.8541C72.9066 46.0837 72.9593 46.4863 73.1654 48.0116C73.7816 51.1689 75.4266 50.6992 77.3581 53.3722C79.3612 56.0819 81.0196 60.3557 81.3218 63.0281C81.4641 64.0097 81.4991 65.3657 80.7492 66.7369C79.6137 69.0171 76.6417 69.8459 74.712 69.6794C71.4404 69.5225 67.8865 69.0301 65.1225 68.5334C63.6974 68.2816 62.3334 68.2413 61.8244 68.9999C61.1651 69.8895 61.2235 71.6824 61.2605 72.5953C61.3988 74.5984 61.5114 75.0851 62.3578 76.8962C62.5935 77.3761 62.8361 77.9925 63.0636 78.6976C63.2594 79.3271 63.4278 80.0234 63.5322 80.7312C63.6412 81.4482 63.3257 81.4157 62.9193 80.829C62.3234 79.9612 62.1737 79.2717 61.641 78.8699C60.6068 78.1231 60.2342 77.9085 60.1457 76.4551C60.1214 75.1553 59.061 74.6969 58.9833 73.9554C58.9366 73.538 59.0387 73.2853 59.0243 72.6875C59.0731 72.067 58.6649 71.1371 58.9394 68.7022C59.1219 67.4151 60.0641 66.1326 61.0673 65.5791C62.0636 64.9937 62.9366 64.8365 63.6495 64.7274C65.0782 64.5437 66.0259 64.6214 66.7979 64.6512C68.3576 64.7072 71.2595 65.7769 73.3895 65.7698C74.1047 65.767 75.065 65.7765 75.8416 65.6052C76.6461 65.4234 77.0156 65.1452 77.2396 64.7107C77.4023 64.3966 77.3809 63.9235 77.2425 63.5281C76.7444 62.3178 77.2306 62.0694 76.9733 60.6543ZM8.76714 66.251C9.76703 66.8713 10.8049 65.4515 12.2699 65.6079C13.8236 65.7446 14.1371 66.4713 16.0572 66.1711C18.0081 65.8487 20.1379 66.502 21.2734 66.6053C22.4508 66.7464 22.2373 67.5635 23.434 68.5727C24.5964 69.7946 24.5745 70.8996 24.3319 72.0754C24.1478 73.3151 23.2431 76.3782 23.2189 77.6717C23.269 78.8826 22.1665 79.9926 21.7377 80.6783C21.6014 80.9014 21.4642 81.0702 21.341 81.1936C21.2888 81.2459 21.219 81.2526 21.1614 81.2303C21.1614 81.2303 21.1613 81.2303 21.1613 81.2303C21.0895 81.2025 21.0365 81.1299 21.0584 81.0459C21.1646 80.6385 21.2641 80.0208 21.2212 79.2998C21.1534 77.8796 21.7411 78.0047 21.9529 76.2038C22.0904 74.4623 21.8098 73.4245 22.0366 71.6955C22.1123 70.8349 21.6234 70.4639 21.2311 70.316C20.7888 70.1715 20.6395 70.1057 19.5634 69.474C17.0919 68.3861 16.7229 70.0964 13.8274 70.477C12.3224 70.672 10.4734 70.6371 8.60326 70.105C6.73424 69.6354 5.00429 68.2077 4.31557 67.146C4.21091 67.0048 4.10871 66.8547 4.01032 66.6954C2.48603 64.4456 3.10388 61.0178 4.37633 58.8998C5.70904 56.4971 7.10312 53.6768 8.47054 51.5954C9.15895 50.5585 9.75568 49.2988 9.57886 48.4992C9.45591 47.6223 8.28548 46.8115 7.54933 46.4108C6.00958 45.6046 5.5943 45.4915 3.83614 45.4361C2.90773 45.4278 1.54848 45.2272 0.389078 44.7987C-0.21666 44.5827 -0.0689346 44.3131 0.552924 44.205C1.46773 44.0499 2.07508 44.2199 2.60916 43.9206C3.59301 43.3226 3.98356 43.091 5.12418 43.6621C6.17567 44.2333 6.93376 43.4898 7.63839 43.7953C7.99288 43.9551 8.10222 44.1505 8.58986 44.4349C9.10193 44.8283 10.0063 44.8173 11.7243 46.5768C13.3642 48.681 12.7279 50.7959 12.4826 51.8823C12.1491 53.0748 11.8021 53.817 11.5259 54.4519C10.987 55.7104 9.15563 57.7293 8.40111 59.501C8.04995 60.3269 7.4782 61.5055 7.25244 62.5581C7.01051 63.6297 7.21824 64.3222 7.54107 64.6569C7.58855 64.7103 7.63495 64.7523 7.67963 64.7852C8.36067 65.1569 7.9238 65.5745 8.76714 66.251Z" fill="#4C4C4C"/>
<path d="M8.0571 27.2543C7.91957 26.7519 6.81773 27.774 6.53673 27.3235C6.25574 26.8729 6.64316 26.1926 6.08417 26.015C5.52522 25.8373 5.37263 25.0794 4.98476 25.1986C4.59685 25.3179 5.13116 24.5097 4.71792 24.4827C4.3047 24.4557 4.20163 24.2291 4.12888 23.7937C4.05611 23.3583 3.43173 22.5925 2.92665 22.7107C2.42157 22.829 2.48375 22.0532 2.38089 21.7867C2.34884 21.7037 2.34017 21.6148 2.34419 21.5314C2.3459 21.4961 2.37469 21.4398 2.41015 21.3892C2.41018 21.3892 2.4102 21.3891 2.41022 21.3891C2.45439 21.3261 2.50889 21.2719 2.53434 21.2779C2.65788 21.3068 2.8735 21.3059 3.20396 21.1968C3.82013 20.9933 3.52483 21.4884 4.10707 21.57C4.68931 21.6516 5.25371 21.3944 5.55985 22.0311C5.86599 22.6677 6.81202 21.5645 7.05373 22.7349C7.29546 23.9052 8.2386 22.7191 9.06373 23.0518C9.88887 23.3845 10.3057 24.6958 10.7732 24.939C11.2408 25.1822 11.9165 25.4406 12.4084 26.0291C12.9003 26.6177 13.9382 26.7298 14.4032 27.4906C14.8682 28.2515 15.5565 29.2833 15.8207 29.8366C16.0849 30.3899 16.1525 30.5202 16.6791 30.6644C16.9818 30.7472 17.2577 31.0625 17.3158 31.5787C17.3449 31.8385 17.1562 32.0394 16.9387 32.0464C16.6206 32.0565 16.5227 31.8321 16.2195 32.0361C15.6137 32.4437 15.3724 32.5938 15.329 32.079C15.2856 31.5643 14.6406 32.2129 14.5422 32.0172C14.4437 31.8215 14.7515 31.3879 13.7131 31.1603C12.6746 30.9327 12.1743 30.7097 11.8136 30.577C11.453 30.4443 11.0826 29.6212 10.4912 29.4101C9.89981 29.199 8.97948 28.3676 8.41668 28.3061C7.85391 28.2445 8.19461 27.7567 8.0571 27.2543Z" fill="#4C4C4C"/>
<path d="M74.4298 27.2543C74.5673 26.7519 75.6692 27.774 75.9501 27.3235C76.2311 26.8729 75.8437 26.1926 76.4027 26.015C76.9617 25.8373 77.1142 25.0794 77.5021 25.1986C77.89 25.3179 77.3557 24.5097 77.769 24.4827C78.1822 24.4557 78.2852 24.2291 78.358 23.7937C78.4308 23.3583 79.0551 22.5925 79.5602 22.7107C80.0653 22.829 80.0031 22.0532 80.106 21.7867C80.138 21.7037 80.1467 21.6148 80.1427 21.5314C80.141 21.4961 80.1122 21.4398 80.0767 21.3892C80.0767 21.3892 80.0767 21.3891 80.0767 21.3891C80.0325 21.3261 79.978 21.2719 79.9525 21.2779C79.829 21.3068 79.6134 21.3059 79.2829 21.1968C78.6668 20.9933 78.9621 21.4884 78.3798 21.57C77.7976 21.6516 77.2332 21.3944 76.927 22.0311C76.6209 22.6677 75.6749 21.5645 75.4331 22.7349C75.1914 23.9052 74.2483 22.7191 73.4231 23.0518C72.598 23.3845 72.1812 24.6958 71.7137 24.939C71.2461 25.1822 70.5704 25.4406 70.0785 26.0291C69.5866 26.6177 68.5487 26.7298 68.0837 27.4906C67.6187 28.2515 66.9304 29.2833 66.6662 29.8366C66.4019 30.3899 66.3344 30.5202 65.8078 30.6644C65.5051 30.7472 65.2291 31.0625 65.1711 31.5787C65.1419 31.8385 65.3306 32.0394 65.5482 32.0464C65.8662 32.0565 65.9642 31.8321 66.2674 32.0361C66.8732 32.4437 67.1145 32.5938 67.1579 32.079C67.2012 31.5643 67.8463 32.2129 67.9447 32.0172C68.0431 31.8215 67.7354 31.3879 68.7738 31.1603C69.8122 30.9327 70.3126 30.7097 70.6733 30.577C71.0339 30.4443 71.4043 29.6212 71.9957 29.4101C72.5871 29.199 73.5074 28.3676 74.0702 28.3061C74.633 28.2445 74.2923 27.7567 74.4298 27.2543Z" fill="#4C4C4C"/>
<path d="M43.8943 78.8805C43.5619 79.2866 45.0313 79.6062 44.8236 80.1011C44.6159 80.596 43.8365 80.6701 44.0118 81.2369C44.1872 81.8037 43.6541 82.3707 43.9743 82.6231C44.2946 82.8754 43.3262 82.9021 43.5413 83.2604C43.7563 83.6188 43.6299 83.836 43.3151 84.1494C43.0003 84.4628 42.7316 85.4257 43.1183 85.7758C43.505 86.1259 42.834 86.5252 42.6749 86.7654C42.6253 86.8402 42.5575 86.8991 42.4869 86.9442C42.4569 86.9633 42.3943 86.9722 42.3325 86.9722C42.3325 86.9722 42.3325 86.9722 42.3324 86.9722C42.2555 86.9722 42.1798 86.9585 42.1701 86.9339C42.1229 86.8146 41.9984 86.6363 41.7194 86.4257C41.199 86.0331 41.774 85.9902 41.5066 85.4599C41.2393 84.9297 40.7048 84.6111 41.0504 83.9872C41.396 83.3633 39.9496 83.22 40.7693 82.3393C41.589 81.4586 40.0763 81.3659 39.8752 80.4883C39.674 79.6107 40.5087 78.5029 40.4394 77.9738C40.3702 77.4448 40.194 76.7342 40.3937 75.9843C40.5933 75.2343 40.0894 74.3084 40.4456 73.4806C40.8017 72.6527 41.2516 71.4823 41.553 70.9416C41.8545 70.4009 41.9225 70.2691 41.7383 69.7487C41.6324 69.4495 41.7322 69.0374 42.1216 68.6893C42.3175 68.5141 42.5904 68.5538 42.7209 68.7301C42.9118 68.988 42.7843 69.1997 43.1253 69.3325C43.8068 69.598 44.0682 69.7108 43.6716 70.046C43.275 70.3812 44.1763 70.5391 44.0726 70.7344C43.9688 70.9298 43.4371 70.9266 43.8467 71.92C44.2564 72.9134 44.3609 73.458 44.4592 73.8342C44.5576 74.2104 44.0961 74.9959 44.2627 75.609C44.4292 76.2221 44.2766 77.4686 44.5492 77.971C44.8219 78.4735 44.2268 78.4745 43.8943 78.8805Z" fill="#4C4C4C"/>
<mask id="mask0_2565_764" style="mask-type:alpha" maskUnits="userSpaceOnUse" x="14" y="7" width="56" height="56">
<mask id="mask1_2565_764" style="mask-type:alpha" maskUnits="userSpaceOnUse" x="14" y="7" width="56" height="56">
<path fill-rule="evenodd" clip-rule="evenodd" d="M19.8912 58.2936C25.5293 56.6803 36.7057 59.0088 42.3438 54.9673C47.9819 59.0088 59.1583 56.6803 64.7964 58.2936C64.7964 58.2936 67.5406 59.1917 69.7859 61.6199C68.6549 63.2332 67.0417 63.2664 64.7964 62.4515C59.1583 60.8382 47.9819 63.2165 42.3438 60.7883C36.7057 63.2165 25.5293 60.8382 19.8912 62.4515C17.6459 63.2664 16.0327 63.2332 14.9017 61.6199C17.147 59.1917 19.8912 58.2936 19.8912 58.2936Z" fill="url(#paint0_linear_2565_764)"/>
<path fill-rule="evenodd" clip-rule="evenodd" d="M29.8701 51.6412C34.028 55.799 50.6596 55.799 54.8175 51.6412C55.649 49.1464 54.8175 48.3148 54.8175 48.3148C54.8175 44.1569 50.6596 41.6622 50.6596 41.6622C59.8069 39.1675 60.6385 22.5359 42.3438 15.8833C24.0491 22.5359 24.8807 39.1675 34.028 41.6622C34.028 41.6622 29.8701 44.1569 29.8701 48.3148C29.8701 48.3148 29.0385 49.1464 29.8701 51.6412Z" fill="url(#paint1_linear_2565_764)"/>
<path fill-rule="evenodd" clip-rule="evenodd" d="M46.5017 11.7253C46.5017 12.828 46.0636 13.8856 45.2839 14.6653C44.5041 15.4451 43.4465 15.8832 42.3438 15.8832C41.2411 15.8832 40.1835 15.4451 39.4037 14.6653C38.624 13.8856 38.1859 12.828 38.1859 11.7253C38.1859 10.6225 38.624 9.56496 39.4037 8.7852C40.1835 8.00544 41.2411 7.56738 42.3438 7.56738C43.4465 7.56738 44.5041 8.00544 45.2839 8.7852C46.0636 9.56496 46.5017 10.6225 46.5017 11.7253Z" fill="url(#paint2_linear_2565_764)"/>
</mask>
<g mask="url(#mask1_2565_764)">
<rect x="14.199" y="7.17627" width="56.2896" height="56.2896" fill="url(#paint3_linear_2565_764)"/>
</g>
</mask>
<g mask="url(#mask0_2565_764)">
<rect x="13.474" y="7.56738" width="57.9265" height="55.4082" fill="url(#paint4_linear_2565_764)"/>
</g>
<defs>
<linearGradient id="paint0_linear_2565_764" x1="42.3438" y1="54.9673" x2="42.3438" y2="62.9757" gradientUnits="userSpaceOnUse">
<stop stop-color="#7F8180"/>
<stop offset="1" stop-color="#5A5C5B"/>
</linearGradient>
<linearGradient id="paint1_linear_2565_764" x1="42.3438" y1="15.8833" x2="42.3438" y2="54.7596" gradientUnits="userSpaceOnUse">
<stop stop-color="#C4C6C5"/>
<stop offset="1" stop-color="#7E807F"/>
</linearGradient>
<linearGradient id="paint2_linear_2565_764" x1="42.3438" y1="7.56738" x2="42.3438" y2="15.8832" gradientUnits="userSpaceOnUse">
<stop stop-color="#DBDDDC"/>
<stop offset="1" stop-color="#C5C7C6"/>
</linearGradient>
<linearGradient id="paint3_linear_2565_764" x1="42.3438" y1="7.17627" x2="42.3438" y2="63.4658" gradientUnits="userSpaceOnUse">
<stop stop-color="#D9D9D9"/>
<stop offset="1" stop-color="#939393"/>
</linearGradient>
<linearGradient id="paint4_linear_2565_764" x1="42.4372" y1="7.56738" x2="42.4372" y2="62.9756" gradientUnits="userSpaceOnUse">
<stop stop-color="#D9D9D9"/>
<stop offset="1" stop-color="#949494"/>
</linearGradient>
</defs>
</svg>
