<svg width="62" height="67" viewBox="0 0 62 67" fill="none" xmlns="http://www.w3.org/2000/svg">
<path d="M44.3914 0C41.1228 0 38.4753 2.64746 38.4753 5.91612C38.4753 7.23245 38.9042 8.44526 39.629 9.43621C36.7449 11.0927 34.7777 14.1839 34.7777 17.7484C34.7777 20.7508 36.168 23.4278 38.3422 25.1879C33.9051 26.7556 27.3826 33.3965 27.3826 45.1104H61.4003C61.4003 33.3965 54.8778 26.7556 50.4407 25.1879C52.6148 23.4278 54.0051 20.7508 54.0051 17.7484C54.0051 14.1839 52.038 11.0927 49.1539 9.43621C49.8786 8.44526 50.3076 7.23245 50.3076 5.91612C50.3076 2.64746 47.6601 0 44.3914 0Z" fill="#4C4C4C"/>
<path d="M25.0582 0C20.2427 0 16.3423 3.90036 16.3423 8.71589C16.3423 10.6552 16.9742 12.4419 18.0419 13.9018C13.7929 16.3423 10.8949 20.8964 10.8949 26.1477C10.8949 30.571 12.9431 34.5149 16.1462 37.1079C9.60927 39.4176 0 49.2012 0 66.4587H50.1164C50.1164 49.2012 40.5071 39.4176 33.9702 37.1079C37.1733 34.5149 39.2215 30.571 39.2215 26.1477C39.2215 20.8964 36.3235 16.3423 32.0745 13.9018C33.1422 12.4419 33.7741 10.6552 33.7741 8.71589C33.7741 3.90036 29.8737 0 25.0582 0Z" fill="url(#paint0_linear_2565_644)"/>
<defs>
<linearGradient id="paint0_linear_2565_644" x1="25.0582" y1="0" x2="25.0582" y2="66.4587" gradientUnits="userSpaceOnUse">
<stop stop-color="#D9D9D9"/>
<stop offset="1" stop-color="#939393"/>
</linearGradient>
</defs>
</svg>
