<svg width="86" height="100" viewBox="0 0 86 100" fill="none" xmlns="http://www.w3.org/2000/svg">
<path d="M19.574 22.9564C18.1481 24.0508 17.4984 25.3885 16.0299 26.9569C14.5926 28.5634 14.1733 28.6719 12.8433 30.7825C11.8722 32.362 10.9443 33.9755 10.4079 35.1489C10.2223 35.5508 10.0803 35.8981 9.99093 36.1686C9.65109 37.228 9.34423 37.2387 8.88853 38.7602C8.45211 40.2843 8.17477 41.2013 7.80492 42.5436C7.37216 43.8731 6.8493 48.1431 6.98226 49.7044C7.03317 51.2585 7.03558 53.0369 7.14583 54.1038C7.17718 54.436 7.20205 54.6971 7.21975 54.8981C7.22727 54.9832 7.22376 55.0236 7.21458 55.0249C7.21458 55.0249 7.21458 55.0249 7.21458 55.0249C7.21458 55.0249 7.21457 55.0249 7.21456 55.0249C7.21456 55.0249 7.21456 55.0249 7.21456 55.0249C7.20317 55.0266 7.18289 54.9677 7.16584 54.8592C7.08305 54.3331 6.9636 53.5457 6.83871 52.6101C6.62712 50.8618 6.69437 50.6635 6.69558 48.288C6.75259 45.9152 6.76583 44.4537 7.41675 41.7184C8.15495 39.0585 7.9165 38.2587 9.58266 34.7785C9.60555 34.7334 9.62885 34.6879 9.65258 34.642C11.5798 31.1683 11.3977 30.5797 13.6618 27.2669C15.9685 23.9533 20.0169 20.8143 21.9984 19.4746C22.2352 19.3049 22.4831 19.1309 22.7429 18.9535C24.6239 17.6628 27.1361 16.2278 29.9736 15.2267C33.1754 14.0651 37.3042 12.9328 41.0956 12.9023C41.5403 12.8959 42.0066 12.8972 42.487 12.9082C42.487 12.9082 42.487 12.9082 42.487 12.9082C46.0949 12.9374 50.4004 13.8836 52.4266 14.5826C54.7303 15.3647 55.2793 15.574 57.4424 16.4478C58.6815 16.962 60.3077 17.8528 61.601 18.7192C62.2513 19.1564 62.0829 19.0887 61.394 18.7109C60.383 18.1646 59.552 17.7192 58.9856 17.5325C57.8487 17.1725 57.3612 17.059 56.0154 16.4395C54.6625 15.8234 53.9012 15.8958 53.0853 15.64C52.2605 15.4324 52.3466 15.0533 48.0009 14.5381C45.6659 14.3201 43.8952 14.3418 42.5077 14.3936C42.5077 14.3936 42.5077 14.3936 42.5077 14.3936C41.31 14.4425 40.3958 14.5284 39.6414 14.6172C38.017 14.7809 34.5846 15.1784 32.0542 16.0992C29.7879 16.8177 25.6294 18.7264 23.5732 20.2168C23.307 20.3989 23.0723 20.5675 22.8741 20.7167C21.1417 22.0586 21.0192 21.8997 19.574 22.9564Z" fill="#316C40"/>
<path d="M37.5993 24.8919C36.3179 25.0505 35.4901 25.8012 34.0268 26.2474C32.5672 26.7298 32.2353 26.5875 30.6773 27.4596C29.5272 28.1193 28.3735 28.7863 27.6287 29.3337C27.3725 29.5204 27.1641 29.69 27.0182 29.8332C26.4533 30.3966 26.2077 30.239 25.4033 31.047C24.6104 31.8619 24.1106 32.3316 23.3946 33.0313C22.6433 33.6996 20.8157 36.1962 20.3738 37.2337C19.882 38.2365 19.2327 39.3391 18.9249 40.0472C18.827 40.2663 18.7491 40.4383 18.6875 40.57C18.6615 40.6257 18.6428 40.649 18.6341 40.6457C18.6341 40.6457 18.6341 40.6457 18.6341 40.6457C18.6341 40.6457 18.6341 40.6457 18.6341 40.6457C18.6341 40.6457 18.6341 40.6457 18.6341 40.6457C18.6233 40.6417 18.628 40.5964 18.6545 40.522C18.7832 40.1608 18.9764 39.6212 19.21 38.9818C19.6596 37.7931 19.7964 37.7042 20.6086 36.197C21.4547 34.7104 21.9417 33.7661 23.3199 32.2743C24.727 30.8656 24.783 30.1964 27.0851 28.6107C27.1157 28.5907 27.1468 28.5706 27.1783 28.5504C29.644 27.0748 29.6632 26.5325 32.2522 25.1913C34.8705 23.8643 38.5613 23.3576 40.2836 23.1928C40.4932 23.1667 40.7113 23.1416 40.9382 23.1185C42.5828 22.9469 44.6837 22.8997 46.8346 23.2742C49.2689 23.6761 52.307 24.35 54.7114 25.695C54.994 25.8509 55.2875 26.0193 55.5862 26.1988C55.5862 26.1988 55.5862 26.1988 55.5862 26.1988C57.8498 27.5136 60.2101 29.66 61.2247 30.8288C62.3828 32.1507 62.6524 32.4741 63.7188 33.7745C64.325 34.5281 65.0266 35.6672 65.5227 36.6728C65.7719 37.1795 65.681 37.0825 65.3712 36.6097C64.9137 35.9213 64.5492 35.3499 64.2382 35.0495C63.6081 34.4567 63.319 34.2366 62.7063 33.3682C62.0893 32.4964 61.526 32.334 61.106 31.8908C60.6653 31.4738 60.8824 31.2259 58.3031 29.4456C56.8983 28.5274 55.7762 27.9462 54.8868 27.5094C54.8868 27.5094 54.8868 27.5094 54.8868 27.5094C54.1177 27.1351 53.5153 26.8787 53.0119 26.679C51.9392 26.2324 49.6751 25.2464 47.7717 24.9653C46.1063 24.6476 42.8524 24.3902 41.0549 24.6258C40.8261 24.6494 40.6217 24.676 40.4468 24.7037C38.9064 24.9691 38.8769 24.7651 37.5993 24.8919Z" fill="#316C40"/>
<path d="M52.272 36.2065C51.6501 35.6269 50.8354 35.7151 49.9975 35.188C49.1404 34.6778 49.0934 34.3732 47.9805 34.027C47.153 33.7782 46.3305 33.4897 45.7376 33.3717C45.5346 33.3303 45.3605 33.3073 45.2261 33.308C44.7023 33.3148 44.6797 33.0345 43.9312 33.0247C43.1859 33.0225 42.7398 32.9762 42.0826 32.9147C41.4258 32.8209 39.3987 33.0346 38.7063 33.3075C38.0093 33.5388 37.1748 33.6749 36.6914 33.8359C36.5407 33.8839 36.4213 33.9199 36.3288 33.9457C36.2896 33.9566 36.2687 33.955 36.2652 33.9465C36.2652 33.9465 36.2652 33.9465 36.2652 33.9465C36.2652 33.9464 36.2652 33.9464 36.2652 33.9464C36.2652 33.9464 36.2652 33.9464 36.2652 33.9464C36.2608 33.9358 36.2833 33.9141 36.331 33.8931C36.5624 33.7908 36.9074 33.636 37.3164 33.4453C38.0842 33.0963 38.1983 33.1558 39.2889 32.8508C40.3851 32.5708 41.0608 32.3336 42.4094 32.3507C43.7262 32.4235 44.0889 32.0186 45.898 32.4814C45.9215 32.4881 45.9452 32.495 45.9691 32.5021C47.7859 33.1072 48.0947 32.721 49.9495 33.3472C51.8124 33.9958 53.6958 35.6492 54.5629 36.4071C54.6719 36.4968 54.7845 36.591 54.9002 36.6903C55.7403 37.4079 56.7356 38.4062 57.5146 39.6429C58.4042 41.0288 59.5189 42.7985 59.9096 44.6067C59.9564 44.8179 60.0018 45.0398 60.0439 45.2692C60.0439 45.2692 60.0439 45.2692 60.0439 45.2692C60.3861 46.9884 60.3394 49.1153 60.1922 50.1327C60.0294 51.2895 59.9904 51.5623 59.8478 52.6657C59.7598 53.2994 59.5014 54.1477 59.2141 54.8313C59.0693 55.1755 59.0647 55.0841 59.1445 54.7201C59.2571 54.1869 59.3749 53.7568 59.3525 53.4664C59.2983 52.8854 59.239 52.6452 59.4095 51.9688C59.5837 51.2876 59.3111 50.937 59.3398 50.5412C59.3489 50.1476 59.6264 50.1369 59.2649 48.119C59.0437 47.0453 58.8041 46.2602 58.6073 45.6476C58.6073 45.6476 58.6073 45.6476 58.6073 45.6476C58.4355 45.1195 58.2858 44.7224 58.1531 44.3974C57.881 43.6977 57.4113 42.158 56.6865 41.1367C56.088 40.2145 54.7908 38.5404 53.8744 37.8008C53.7608 37.704 53.6562 37.6205 53.5638 37.5522C52.7395 36.9605 52.8734 36.7974 52.272 36.2065Z" fill="#316C40"/>
<path d="M64.6676 78.0445C66.1606 77.0434 66.8944 75.7498 68.46 74.2785C69.997 72.767 70.4224 72.6855 71.8845 70.6642C72.9545 69.1499 73.9835 67.599 74.5938 66.4623C74.8047 66.073 74.9686 65.7356 75.075 65.4713C75.4819 64.4358 75.7888 64.4447 76.3407 62.9554C76.8736 61.4623 77.2089 60.5649 77.6638 59.2489C78.1806 57.9498 78.9751 53.7219 78.9421 52.1552C78.9906 50.6011 79.1017 48.8262 79.0599 47.7545C79.0498 47.4209 79.0416 47.1587 79.0368 46.957C79.0347 46.8716 79.0408 46.8316 79.0501 46.8308C79.0501 46.8308 79.0501 46.8308 79.0501 46.8308C79.0501 46.8308 79.0501 46.8308 79.0501 46.8308C79.0501 46.8308 79.0501 46.8308 79.0501 46.8308C79.0616 46.8299 79.078 46.8899 79.0881 46.9992C79.1371 47.5296 79.2061 48.3231 79.2709 49.2647C79.3704 51.023 79.2907 51.2166 79.1377 53.5871C78.9293 55.9515 78.8227 57.4091 77.9984 60.0972C77.0919 62.7046 77.2787 63.5179 75.3937 66.8847C75.368 66.9282 75.3418 66.9721 75.3152 67.0164C73.17 70.3599 73.3142 70.9589 70.8431 74.1204C68.3295 77.2799 64.0889 80.1539 62.0259 81.3643C61.7787 81.5186 61.5202 81.6764 61.2496 81.8368C59.29 83.0047 56.6913 84.2764 53.7956 85.0942C50.5262 86.0488 46.3335 86.9152 42.5479 86.7035C42.1037 86.6814 41.6384 86.6504 41.1597 86.6087C41.1597 86.6087 41.1597 86.6087 41.1597 86.6087C37.561 86.3491 33.3248 85.1299 31.3473 84.3029C29.0983 83.3752 28.5638 83.1313 26.4609 82.1212C25.2572 81.5288 23.6911 80.536 22.4559 79.5888C21.8348 79.1109 21.9986 79.1893 22.662 79.6103C23.636 80.22 24.4368 80.7176 24.9901 80.9401C26.1017 81.3719 26.581 81.5163 27.8845 82.2206C29.1953 82.9218 29.9596 82.8982 30.7575 83.2055C31.5674 83.4655 31.4572 83.8383 35.7611 84.6299C38.0775 84.9966 39.8459 85.0881 41.2339 85.125C41.2339 85.125 41.2339 85.125 41.2339 85.125C42.4323 85.1527 43.3501 85.1253 44.1087 85.0849C45.7401 85.0253 49.191 84.8478 51.775 84.0906C54.0825 83.5183 58.3544 81.8791 60.5017 80.523C60.779 80.3584 61.0239 80.205 61.2313 80.0688C63.0458 78.8403 63.158 79.0066 64.6676 78.0445Z" fill="#316C40"/>
<path d="M46.803 74.962C48.0919 74.8855 48.9659 74.1892 50.4548 73.8374C51.9422 73.4491 52.2643 73.6124 53.8748 72.8416C55.0647 72.2567 56.2587 71.6648 57.0369 71.166C57.3045 70.996 57.5233 70.8401 57.6781 70.7065C58.2778 70.1803 58.5128 70.3533 59.3671 69.5984C60.2105 68.8357 60.7393 68.3989 61.4985 67.7464C62.291 67.1274 64.2743 64.7527 64.7816 63.7455C65.3364 62.7762 66.0548 61.7173 66.4072 61.0303C66.5189 60.8179 66.6077 60.6512 66.6775 60.5238C66.707 60.4698 66.7272 60.4477 66.7357 60.4515C66.7357 60.4515 66.7357 60.4515 66.7357 60.4515C66.7357 60.4515 66.7357 60.4515 66.7357 60.4515C66.7357 60.4515 66.7357 60.4515 66.7357 60.4515C66.7462 60.4563 66.7386 60.5012 66.7074 60.5737C66.5559 60.926 66.3286 61.4521 66.0546 62.0753C65.53 63.2329 65.3878 63.3128 64.4811 64.7651C63.5417 66.1946 62.9954 67.1059 61.5247 68.5066C60.0306 69.8226 59.9319 70.4868 57.5332 71.9222C57.5014 71.9402 57.4691 71.9583 57.4364 71.9764C54.8815 73.2915 54.8277 73.8315 52.1582 75.0047C49.4605 76.1617 45.7449 76.4316 44.0156 76.4861C43.8048 76.4988 43.5855 76.5099 43.3576 76.5185C41.7055 76.5846 39.6058 76.4975 37.4832 75.9864C35.0796 75.4299 32.0907 74.5634 29.7771 73.0675C29.505 72.8938 29.2229 72.7071 28.9362 72.5089C28.9362 72.5089 28.9362 72.5089 28.9362 72.5089C26.7612 71.0522 24.5429 68.7594 23.605 67.5282C22.5337 66.135 22.2853 65.795 21.3041 64.4292C20.7473 63.6385 20.1199 62.4569 19.689 61.4216C19.4727 60.9001 19.5573 61.0027 19.8361 61.4943C20.2488 62.2105 20.576 62.804 20.8672 63.1236C21.4582 63.7555 21.7326 63.9936 22.2886 64.8994C22.8487 65.8087 23.4004 66.0069 23.7913 66.476C24.2045 66.9203 23.972 67.1537 26.4323 69.0952C27.7756 70.1012 28.8583 70.7529 29.7179 71.2456C29.7179 71.2456 29.7179 71.2456 29.7179 71.2456C30.4616 71.6683 31.0463 71.9626 31.536 72.1941C32.5779 72.7083 34.7745 73.8369 36.656 74.2389C38.2977 74.6623 41.5286 75.1271 43.3374 75.0068C43.5673 74.9978 43.773 74.9843 43.9492 74.9678C45.5035 74.8014 45.5199 75.0069 46.803 74.962Z" fill="#316C40"/>
<path d="M32.424 62.7947C33.0077 63.4128 33.8263 63.3768 34.6288 63.9563C35.4517 64.5202 35.4791 64.8272 36.5677 65.2437C37.3776 65.545 38.1799 65.8854 38.7641 66.041C38.964 66.0953 39.1363 66.1294 39.2705 66.1372C39.7936 66.1639 39.7983 66.4451 40.5446 66.5027C41.2883 66.5524 41.7305 66.6272 42.3824 66.7305C43.0319 66.8661 45.0685 66.7823 45.7769 66.5542C46.4873 66.3678 47.3287 66.2853 47.8215 66.1555C47.9749 66.1172 48.0963 66.089 48.1903 66.0691C48.2302 66.0607 48.2509 66.0636 48.2538 66.0724C48.2538 66.0724 48.2538 66.0724 48.2538 66.0724C48.2539 66.0724 48.2539 66.0724 48.2539 66.0724C48.2539 66.0724 48.2539 66.0724 48.2539 66.0724C48.2575 66.0833 48.2337 66.1035 48.1847 66.1215C47.9473 66.2088 47.5932 66.3412 47.1728 66.5054C46.3843 66.8046 46.2742 66.738 45.1663 66.9727C44.0545 67.1821 43.365 67.3757 42.0202 67.2724C40.7108 67.1158 40.3229 67.4966 38.5471 66.9192C38.5241 66.911 38.5009 66.9026 38.4775 66.894C36.703 66.1741 36.3702 66.5398 34.5592 65.7964C32.7415 65.0302 30.9676 63.2599 30.1507 62.4481C30.0476 62.3516 29.9413 62.2504 29.8321 62.1439C29.0396 61.3742 28.1101 60.3144 27.4117 59.0304C26.6124 57.5905 25.613 55.7532 25.3386 53.9237C25.3054 53.7101 25.2743 53.4857 25.2469 53.254C25.2469 53.254 25.2469 53.254 25.2469 53.254C25.0152 51.5165 25.1976 49.397 25.4095 48.391C25.6458 47.2469 25.7022 46.9772 25.915 45.8852C26.0433 45.2584 26.3553 44.4283 26.6857 43.7645C26.8522 43.4302 26.851 43.5217 26.7481 43.8799C26.6016 44.4048 26.4566 44.8266 26.4604 45.1177C26.4774 45.701 26.5213 45.9445 26.3079 46.6086C26.0905 47.2773 26.3402 47.6446 26.2862 48.0378C26.2521 48.43 25.9744 48.4229 26.2063 50.4598C26.3585 51.5455 26.5475 52.3443 26.7047 52.9682C26.7047 52.9682 26.7047 52.9682 26.7047 52.9682C26.8424 53.5062 26.9664 53.912 27.0781 54.2448C27.305 54.9604 27.6754 56.527 28.3335 57.5925C28.8719 58.5511 30.0594 60.3046 30.9268 61.1012C31.0339 61.2051 31.133 61.2951 31.2209 61.3691C32.0056 62.0123 31.8617 62.1665 32.424 62.7947Z" fill="#316C40"/>
<mask id="mask0_2565_545" style="mask-type:alpha" maskUnits="userSpaceOnUse" x="11" y="19" width="57" height="57">
<path fill-rule="evenodd" clip-rule="evenodd" d="M38.9955 24.418C57.3608 26.167 67.8553 38.4106 66.9808 75.1413H26.7519C26.7519 59.3996 44.2427 63.7723 40.7445 38.4106" fill="url(#paint0_linear_2565_545)"/>
<path fill-rule="evenodd" clip-rule="evenodd" d="M42.4936 38.4108C43.1582 43.5006 32.7862 51.3015 28.5009 54.1525C23.2537 57.6507 23.5685 61.7435 19.7555 61.1488C17.933 59.5047 22.2217 55.8316 19.7555 55.9016C18.0065 55.9016 20.0879 58.053 18.0065 59.3998C16.2574 59.3998 11.0049 61.1488 11.0101 52.4034C11.0101 48.9053 21.5046 31.4145 21.5046 31.4145C21.5046 31.4145 24.8104 28.0912 25.0028 25.2927C23.726 23.5541 24.1282 21.7945 24.1282 20.0454C25.8773 18.2964 29.3755 24.4181 29.3755 24.4181H32.8737C32.8737 24.4181 34.2379 20.934 37.2464 19.1709C38.9954 19.1709 38.9954 24.4181 38.9954 24.4181" fill="url(#paint1_linear_2565_545)"/>
</mask>
<g mask="url(#mask0_2565_545)">
<rect x="8.62012" y="18.6265" width="60.8013" height="56.5151" fill="url(#paint2_linear_2565_545)"/>
</g>
<defs>
<linearGradient id="paint0_linear_2565_545" x1="46.8917" y1="24.418" x2="46.8917" y2="75.1413" gradientUnits="userSpaceOnUse">
<stop stop-color="#BFF2DD"/>
<stop offset="1" stop-color="#67B475"/>
</linearGradient>
<linearGradient id="paint1_linear_2565_545" x1="26.7671" y1="19.1709" x2="26.7671" y2="61.2069" gradientUnits="userSpaceOnUse">
<stop stop-color="#BFF2DD"/>
<stop offset="1" stop-color="#67B475"/>
</linearGradient>
<linearGradient id="paint2_linear_2565_545" x1="39.0208" y1="18.6265" x2="39.0208" y2="75.1416" gradientUnits="userSpaceOnUse">
<stop stop-color="#C0F4DF"/>
<stop offset="1" stop-color="#5CAC68"/>
</linearGradient>
</defs>
</svg>
