<svg width="86" height="82" viewBox="0 0 86 82" fill="none" xmlns="http://www.w3.org/2000/svg">
<path d="M40.5297 4.15564C39.509 4.08494 39.1536 5.70142 37.9606 5.80605C36.7677 5.91066 36.3954 5.20349 35.1362 5.72246C33.877 6.24138 32.4337 6.07619 31.9357 6.54116C31.4378 7.00622 31.1258 6.08716 30.3566 6.51596C29.5874 6.94472 29.0548 6.95656 28.2519 6.84579C27.449 6.73502 25.1632 7.06929 24.4573 7.65877C23.7515 8.24825 22.6586 7.84642 22.0646 7.84082C21.8796 7.83908 21.7266 7.80986 21.6044 7.76952C21.5527 7.75241 21.5161 7.69738 21.5001 7.6377C21.5001 7.63766 21.5001 7.63762 21.5001 7.63758C21.4802 7.56325 21.4921 7.48173 21.5462 7.45718C21.8085 7.33803 22.1866 7.10781 22.5992 6.70839C23.3684 5.96362 23.6159 6.49253 24.7673 5.90724C25.9186 5.32195 26.5135 4.60916 28.0391 4.55822C29.5646 4.50727 29.5201 3.02179 31.7594 3.27038C33.9987 3.51892 33.8205 2.00064 35.7886 1.26507C37.7566 0.5295 40.5226 0.652403 41.7225 0.259262C41.8676 0.211713 42.0184 0.161015 42.1746 0.108148L42.9003 -0.00022471L43.1753 0.108148C44.3504 0.342913 45.8276 0.61972 47.2997 1.19584C48.9743 1.85123 51.2358 1.9355 53.0492 2.79014C54.8626 3.64477 57.4402 4.80117 58.6068 5.42584C59.7733 6.05049 60.0591 6.19745 61.3047 6.34052C62.0207 6.42276 62.9435 6.77334 63.644 7.36415C63.9965 7.66149 63.8345 7.90056 63.3949 7.91791C62.7519 7.94326 62.2977 7.68952 61.9036 7.93695C61.1161 8.43147 60.7887 8.6144 60.1199 8.02455C59.4512 7.43476 58.8544 8.20799 58.4315 7.98729C58.0087 7.76653 58.1537 7.25498 55.7611 7.03794C53.3684 6.82091 52.0878 6.58599 51.1964 6.44895C50.305 6.31191 48.6163 5.38173 47.162 5.16446C45.872 4.97173 43.5001 4.22914 42.1241 4.03129H43.2258C43.0613 4.09711 42.9153 4.16251 42.7926 4.22729C41.7067 4.80052 41.5503 4.22635 40.5297 4.15564ZM78.5779 68.4519C77.6586 68.901 78.1591 70.4787 77.1783 71.1657C76.1975 71.8528 75.5215 71.4265 74.6904 72.5056C73.8594 73.5846 72.5269 74.1632 72.3281 74.8148C72.1294 75.4666 71.3997 74.8266 70.9479 75.5826C70.4962 76.3385 70.0409 76.6151 69.2902 76.9205C68.5395 77.2261 66.727 78.6585 66.4104 79.5219C66.0939 80.3853 64.9466 80.5838 64.4293 80.8759C64.2682 80.9669 64.1211 81.0181 63.9951 81.0443C63.9417 81.0553 63.8826 81.026 63.8389 80.9823C63.8389 80.9822 63.8388 80.9822 63.8388 80.9822C63.7844 80.9278 63.754 80.8512 63.7885 80.8029C63.9561 80.5686 64.1685 80.1801 64.326 79.6279C64.6198 78.5984 65.0987 78.9326 65.8031 77.8501C66.5075 76.7675 66.6664 75.8528 67.9621 75.0459C69.2577 74.239 68.4764 72.9748 70.5401 72.0704C72.6036 71.166 71.6902 69.9402 73.0267 68.3192C74.3633 66.6981 76.8202 65.4216 77.6627 64.4812C77.7646 64.3674 77.8699 64.2481 77.9787 64.1243L77.4783 64.9909C77.7131 63.8158 77.9899 62.3387 78.566 60.8666C79.2214 59.1919 79.3057 56.9304 80.1603 55.1171C81.0149 53.3037 82.1713 50.7261 82.796 49.5595C83.4207 48.3929 83.5676 48.1072 83.7107 46.8615C83.7929 46.1455 84.1435 45.2227 84.7343 44.5223C85.0317 44.1697 85.2707 44.3317 85.2881 44.7714C85.3134 45.4143 85.0597 45.8686 85.3071 46.2626C85.8017 47.0501 85.9846 47.3775 85.3947 48.0463C84.8049 48.7151 85.5782 49.3119 85.3575 49.7347C85.1367 50.1576 84.6252 50.0126 84.4081 52.4052C84.1911 54.7979 83.9562 56.0784 83.8191 56.9698C83.6821 57.8612 82.7519 59.5499 82.5346 61.0043C82.3419 62.2943 81.5993 64.6662 81.4015 66.0421L81.3534 66.364L80.8506 66.9962C80.7412 67.1354 80.6474 67.2651 80.5735 67.3825C79.9197 68.4219 79.4972 68.0029 78.5779 68.4519ZM3.82406 63.346C3.89476 62.3254 2.27827 61.9699 2.17365 60.777C2.06904 59.5841 2.77621 59.2118 2.25723 57.9525C1.73831 56.6934 1.90351 55.2501 1.43854 54.7521C0.973481 54.2541 1.89253 53.9422 1.46374 53.173C1.03498 52.4038 1.02313 51.8712 1.13391 51.0683C1.24467 50.2654 0.910407 47.9795 0.320929 47.2737C-0.268551 46.5679 0.13328 45.475 0.138873 44.881C0.140616 44.696 0.169834 44.5429 0.210173 44.4208C0.227288 44.369 0.282312 44.3325 0.342 44.3165C0.342038 44.3165 0.342077 44.3165 0.342116 44.3165C0.416443 44.2966 0.497967 44.3085 0.522514 44.3625C0.641667 44.6249 0.871883 45.003 1.27131 45.4155C2.01608 46.1847 1.48717 46.4323 2.07246 47.5836C2.65775 48.735 3.37054 49.3299 3.42147 50.8555C3.47243 52.381 4.95791 52.3365 4.70932 54.5758C4.46077 56.8151 5.97905 56.6369 6.71463 58.6049C7.4502 60.573 7.32729 63.339 7.72044 64.5388C7.76798 64.684 7.81868 64.8348 7.87155 64.9909L7.37117 64.1243C8.27148 64.9151 9.4123 65.8934 10.3991 67.1284C11.5217 68.5333 13.4381 69.737 14.5812 71.3839C15.7243 73.0307 17.3784 75.321 18.0764 76.4453C18.7743 77.5695 18.9483 77.8396 19.9555 78.5864C20.5345 79.0156 21.1583 79.7806 21.4696 80.6425C21.6262 81.0763 21.3664 81.2023 20.9769 80.9975C20.4074 80.698 20.1409 80.2511 19.676 80.2684C18.7467 80.3029 18.3717 80.2976 18.0874 79.4524C17.8032 78.6072 16.8997 78.9785 16.6439 78.5759C16.388 78.1733 16.7694 77.8028 14.8058 76.4185C12.8423 75.0342 11.8507 74.1905 11.1473 73.6261C10.4438 73.0617 9.44645 71.4118 8.29558 70.4965C7.27477 69.6846 5.59192 67.8555 4.49923 66.9962L4.24454 66.7937L3.94841 66.0421C3.88258 65.8777 3.81719 65.7317 3.7524 65.609C3.17918 64.5231 3.75334 64.3667 3.82406 63.346Z" fill="#A56244"/>
<path fill-rule="evenodd" clip-rule="evenodd" d="M20.2224 64.505C25.8605 62.8918 37.0369 65.2202 42.675 61.1787C48.3131 65.2202 59.4895 62.8918 65.1276 64.505C65.1276 64.505 67.8718 65.4031 70.1171 67.8313C68.9861 69.4446 67.3728 69.4779 65.1276 68.6629C59.4895 67.0497 48.3131 69.428 42.675 66.9998C37.0369 69.428 25.8605 67.0497 20.2224 68.6629C17.9771 69.4779 16.3639 69.4446 15.2329 67.8313C17.4782 65.4031 20.2224 64.505 20.2224 64.505Z" fill="url(#paint0_linear_2565_209)"/>
<path fill-rule="evenodd" clip-rule="evenodd" d="M30.2013 57.8526C34.3592 62.0105 50.9907 62.0105 55.1486 57.8526C55.9802 55.3578 55.1486 54.5263 55.1486 54.5263C55.1486 50.3684 50.9907 47.8736 50.9907 47.8736C60.1381 45.3789 60.9697 28.7473 42.675 22.0947C24.3803 28.7473 25.2118 45.3789 34.3592 47.8736C34.3592 47.8736 30.2013 50.3684 30.2013 54.5263C30.2013 54.5263 29.3697 55.3578 30.2013 57.8526Z" fill="url(#paint1_linear_2565_209)"/>
<path fill-rule="evenodd" clip-rule="evenodd" d="M46.8329 17.9367C46.8329 19.0394 46.3948 20.097 45.6151 20.8768C44.8353 21.6565 43.7777 22.0946 42.675 22.0946C41.5722 22.0946 40.5147 21.6565 39.7349 20.8768C38.9552 20.097 38.5171 19.0394 38.5171 17.9367C38.5171 16.834 38.9552 15.7764 39.7349 14.9966C40.5147 14.2169 41.5722 13.7788 42.675 13.7788C43.7777 13.7788 44.8353 14.2169 45.6151 14.9966C46.3948 15.7764 46.8329 16.834 46.8329 17.9367Z" fill="url(#paint2_linear_2565_209)"/>
<defs>
<linearGradient id="paint0_linear_2565_209" x1="42.675" y1="61.1787" x2="42.675" y2="69.1871" gradientUnits="userSpaceOnUse">
<stop stop-color="#D09278"/>
<stop offset="1" stop-color="#BD7253"/>
</linearGradient>
<linearGradient id="paint1_linear_2565_209" x1="42.675" y1="22.0947" x2="42.675" y2="60.971" gradientUnits="userSpaceOnUse">
<stop stop-color="#F0C7B7"/>
<stop offset="1" stop-color="#CB8A6F"/>
</linearGradient>
<linearGradient id="paint2_linear_2565_209" x1="42.675" y1="13.7788" x2="42.675" y2="22.0946" gradientUnits="userSpaceOnUse">
<stop stop-color="#F0C7B7"/>
<stop offset="1" stop-color="#E6B7A4"/>
</linearGradient>
</defs>
</svg>
