<svg width="86" height="70" viewBox="0 0 86 70" fill="none" xmlns="http://www.w3.org/2000/svg">
<mask id="path-1-outside-1_2565_506" maskUnits="userSpaceOnUse" x="-0.561523" y="-0.229004" width="87" height="64" fill="black">
<rect fill="white" x="-0.561523" y="-0.229004" width="87" height="64"/>
<path d="M42.943 6.07171C24.6697 6.07171 10.4146 35.9586 10.4146 61.8462C8.49444 61.3318 4.59236 60.2003 4.3456 59.789C4.09883 59.3778 1.63803 56.0533 0.438477 54.4425L1.17327 49.3863L4.155 45.0679L5.90288 40.441L6.72549 35.7114V30.6733L10.6326 26.5605L13.1003 24.1957L15.5679 21.8308L17.3158 17.1012L18.344 12.3715L22.4568 10.2123L27.0428 6.3847L30.2361 4.8994L31.4739 2.25062L34.0817 1.07651L37.3683 1.38794H41.6688L45.3703 0.771024H48.7057L52.1787 2.77802L54.5771 3.75142L58.9424 4.16405L62.2303 5.50406L64.1582 7.72408L65.2682 11.6091L67.3736 14.3431L71.2807 16.2967L74.9822 18.7643L75.8047 23.9053L76.5883 28.2237L80.2259 32.1308L83.5161 38.1971L81.871 45.6L82.5907 52.1804L85.0058 58.5698L81.871 61.3175L76.5883 61.8462C76.5883 35.9586 61.2164 6.07171 42.943 6.07171Z"/>
</mask>
<path d="M42.943 6.07171C24.6697 6.07171 10.4146 35.9586 10.4146 61.8462C8.49444 61.3318 4.59236 60.2003 4.3456 59.789C4.09883 59.3778 1.63803 56.0533 0.438477 54.4425L1.17327 49.3863L4.155 45.0679L5.90288 40.441L6.72549 35.7114V30.6733L10.6326 26.5605L13.1003 24.1957L15.5679 21.8308L17.3158 17.1012L18.344 12.3715L22.4568 10.2123L27.0428 6.3847L30.2361 4.8994L31.4739 2.25062L34.0817 1.07651L37.3683 1.38794H41.6688L45.3703 0.771024H48.7057L52.1787 2.77802L54.5771 3.75142L58.9424 4.16405L62.2303 5.50406L64.1582 7.72408L65.2682 11.6091L67.3736 14.3431L71.2807 16.2967L74.9822 18.7643L75.8047 23.9053L76.5883 28.2237L80.2259 32.1308L83.5161 38.1971L81.871 45.6L82.5907 52.1804L85.0058 58.5698L81.871 61.3175L76.5883 61.8462C76.5883 35.9586 61.2164 6.07171 42.943 6.07171Z" fill="#316C41"/>
<path d="M10.0396 61.8462C10.2896 61.8462 10.5396 61.8462 10.7896 61.8462C10.8755 56.5154 11.5442 51.1934 12.6789 45.9909C16.6128 29.589 24.9722 8.69318 42.943 7.06107C46.2468 7.05959 49.4879 8.14773 52.367 9.88673C68.4815 21.0855 75.1625 42.509 75.6269 61.8462C75.6262 62.4448 76.0883 62.8616 76.684 62.8027C78.4447 62.6242 80.2054 62.4456 81.966 62.2669C82.1035 62.2534 82.396 62.1259 82.5 62.035C83.5436 61.1177 84.5872 60.2003 85.6308 59.2829C85.8991 59.0483 86.0182 58.5682 85.8927 58.2346C85.0845 56.106 84.2762 53.9775 83.4677 51.849L83.5227 52.0785C83.2792 49.8854 83.0355 47.6924 82.7917 45.4993L82.7751 45.801C83.3191 43.3323 83.8629 40.8637 84.4065 38.3949C84.4413 38.2397 84.3934 37.9023 84.3178 37.7622C83.2172 35.7423 82.1164 33.7224 81.0154 31.7026C80.9932 31.6615 80.915 31.553 80.8833 31.5188C79.668 30.2189 78.4527 28.9192 77.2372 27.6195L77.4607 28.0654C77.1964 26.6265 76.9319 25.1876 76.6674 23.7487L76.6705 23.7667C76.3924 22.0537 76.1141 20.3407 75.8358 18.6277C75.8074 18.447 75.6137 18.1468 75.4617 18.045C74.2259 17.2254 72.9901 16.4059 71.7542 15.5864C71.7364 15.5745 71.6815 15.5428 71.6624 15.5332C70.3584 14.8853 69.0544 14.2374 67.7503 13.5896L68.041 13.8291C67.3369 12.9196 66.6327 12.0101 65.9284 11.1007L66.0695 11.3802C65.696 10.0862 65.3225 8.79215 64.9489 7.49816C64.9277 7.42314 64.83 7.24388 64.7791 7.18487C64.1344 6.44664 63.4897 5.70843 62.845 4.97024C62.7902 4.90683 62.615 4.78197 62.5375 4.75013C61.4403 4.30656 60.3431 3.86303 59.2458 3.41954C59.2006 3.40095 59.0667 3.36839 59.0181 3.36364C57.5625 3.23032 56.107 3.09706 54.6515 2.96388L54.8745 3.01843C54.0741 2.69636 53.2737 2.37431 52.4732 2.05229L52.5706 2.09988C51.4109 1.43442 50.2511 0.768998 49.0914 0.103631C49.0131 0.0580649 48.7963 0.000488818 48.7057 0.000204742C47.5939 0.00369155 46.4821 0.00721818 45.3703 0.0107846C45.3449 0.010703 45.2704 0.0170293 45.2453 0.0211284C44.0122 0.230724 42.779 0.440369 41.5459 0.650064L41.6688 0.639886C40.2353 0.6446 38.8018 0.64938 37.3683 0.654226L37.4375 0.657498C36.3416 0.557391 35.2457 0.457323 34.1499 0.357293C34.0666 0.349117 33.8615 0.38369 33.7851 0.417758C32.9172 0.812129 32.0493 1.20653 31.1814 1.60095C31.0689 1.65111 30.8809 1.83761 30.8284 1.94899C30.4189 2.83337 30.0095 3.71776 29.6001 4.60216L29.94 4.26278C28.8773 4.76168 27.8147 5.26063 26.752 5.75961C26.7184 5.77508 26.6295 5.83185 26.601 5.85543C25.077 7.13688 23.5531 8.41843 22.0293 9.70008L22.1466 9.62157C20.7784 10.3465 19.4103 11.0715 18.0422 11.7965C17.9098 11.8653 17.7417 12.0879 17.7094 12.2336C17.3728 13.8114 17.0363 15.3893 16.6998 16.9673L16.7245 16.8826C16.1482 18.4615 15.5719 20.0404 14.9957 21.6194L15.1458 21.3904C14.3265 22.1821 13.5072 22.9737 12.6879 23.7654C11.8687 24.5571 11.0494 25.3489 10.2302 26.1406C10.2263 26.1444 10.2148 26.156 10.211 26.16C8.91441 27.5364 7.61793 28.9129 6.32154 30.2895C6.24863 30.3656 6.16877 30.5679 6.16831 30.6733C6.17563 32.3526 6.18305 34.032 6.19055 35.7114L6.19846 35.6197C5.9313 37.1975 5.66423 38.7753 5.39723 40.3531L5.42276 40.2597C4.84718 41.8046 4.27168 43.3496 3.69627 44.8946L3.75147 44.7893C2.7643 46.2334 1.7772 47.6776 0.790184 49.1218C0.763372 49.1602 0.719538 49.273 0.712576 49.3193C0.616425 50.004 0.520289 50.6886 0.424168 51.3733C0.283504 52.3752 0.142873 53.3771 0.00227392 54.3791C-0.010672 54.4652 0.0332795 54.6356 0.0849483 54.7057C1.39798 56.4614 2.77017 58.2586 3.99585 59.9989C6.30998 61.3815 8.19536 61.5606 10.3176 62.2084C10.3823 61.9669 10.447 61.7254 10.5117 61.484C8.54122 60.9312 6.11575 60.2498 4.69535 59.5792C3.40492 57.7006 2.10155 55.9686 0.792005 54.1792L0.874679 54.5058C1.02509 53.5053 1.17546 52.5048 1.32581 51.5043C1.42854 50.8206 1.53126 50.1369 1.63397 49.4532L1.55636 49.6508C2.55716 48.2161 3.55789 46.7813 4.55853 45.3465C4.57235 45.3263 4.60519 45.2641 4.61373 45.2412C5.20357 43.7016 5.79333 42.162 6.38301 40.6224C6.38989 40.604 6.40525 40.5484 6.40854 40.529C6.68994 38.9537 6.97127 37.3784 7.25251 35.803C7.25563 35.7846 7.26051 35.7301 7.26042 35.7114C7.26793 34.032 7.27534 32.3526 7.28266 30.6733L7.12944 31.057C8.43778 29.6918 9.74605 28.3265 11.0542 26.9611L11.035 26.9804C11.8609 26.1956 12.6867 25.4108 13.5126 24.6259C14.3384 23.8411 15.1642 23.0562 15.99 22.2713C16.0333 22.2294 16.1194 22.0989 16.1401 22.0423C16.7292 20.4681 17.3182 18.8939 17.9071 17.3197C17.9132 17.303 17.9281 17.2525 17.9318 17.2351C18.2808 15.6599 18.6298 14.0847 18.9786 12.5095L18.6459 12.9465C20.0196 12.2321 21.3933 11.5176 22.7669 10.803C22.7924 10.7895 22.8622 10.7431 22.8843 10.7245C24.4178 9.45444 25.9512 8.18425 27.4845 6.91396L27.3335 7.00978C28.3998 6.51856 29.466 6.02731 30.5322 5.53602C30.6396 5.48563 30.8224 5.30423 30.8722 5.19664C31.288 4.31518 31.7037 3.43372 32.1194 2.55224L31.7664 2.90028C32.637 2.51197 33.5077 2.12362 34.3783 1.73525L34.0136 1.79572C35.1087 1.90331 36.2039 2.01086 37.299 2.11838C37.3129 2.11964 37.3543 2.1217 37.3683 2.12165C38.8018 2.12649 40.2353 2.13127 41.6688 2.13599C41.6939 2.13591 41.7672 2.13 41.7918 2.12581C43.0263 1.92423 44.2608 1.7226 45.4953 1.52092L45.3703 1.53126C46.4821 1.53483 47.5939 1.53836 48.7057 1.54184L48.32 1.43842C49.4756 2.11105 50.6312 2.78363 51.7868 3.45616C51.8058 3.46705 51.8638 3.49559 51.8841 3.50375C52.6826 3.83066 53.4811 4.15754 54.2796 4.4844C54.324 4.50226 54.455 4.53459 54.5026 4.53896C55.9573 4.68086 57.412 4.82269 58.8667 4.96446L58.639 4.90857C59.7336 5.35841 60.8283 5.80822 61.923 6.25799L61.6156 6.03788C62.2561 6.7797 62.8967 7.5215 63.5373 8.26328L63.3675 7.94999C63.7339 9.24603 64.1004 10.542 64.4669 11.838C64.4855 11.9024 64.5669 12.0645 64.6079 12.1175C65.3073 13.0308 66.0067 13.9439 66.7061 14.8571C66.7568 14.9226 66.9226 15.0597 66.9968 15.0966C68.2975 15.7512 69.5982 16.4057 70.8989 17.0601L70.8072 17.0069C72.039 17.8325 73.2708 18.6581 74.5026 19.4837L74.1285 18.9009C74.3985 20.6152 74.6687 22.3295 74.9389 24.0438C74.9395 24.0474 74.9413 24.0582 74.942 24.0618C75.1999 25.5019 75.4578 26.9419 75.7159 28.382C75.7367 28.4956 75.8604 28.7435 75.9393 28.8279C77.149 30.1329 78.3587 31.4379 79.5686 32.7428L79.4364 32.559C80.5289 34.5834 81.6216 36.6077 82.7144 38.6319L82.6258 37.9992C82.0726 40.4658 81.5197 42.9324 80.9669 45.3991C80.9532 45.4613 80.9433 45.6375 80.9503 45.7007C81.1863 47.8946 81.4225 50.0885 81.6588 52.2824C81.6642 52.3308 81.6965 52.4664 81.7138 52.5119C82.5153 54.643 83.317 56.7741 84.1188 58.9051L84.3808 57.8568C83.3345 58.7711 82.2883 59.6855 81.2421 60.5999L81.776 60.368C80.0148 60.5418 78.2537 60.7156 76.4926 60.8896L77.5496 61.8462C77.0352 41.9169 70.61 20.2565 53.3975 8.17265C50.2843 6.29027 46.6677 5.06462 42.943 5.08235C22.7076 7.33 15.2217 29.091 11.5035 45.7494C10.4842 51.0524 9.95882 56.4581 10.0396 61.8462ZM10.7896 61.8462H10.0396L10.5117 61.484L10.3176 62.2084C10.5769 62.2793 10.7855 62.1149 10.7896 61.8462Z" fill="#316C40" mask="url(#path-1-outside-1_2565_506)"/>
<mask id="mask0_2565_506" style="mask-type:alpha" maskUnits="userSpaceOnUse" x="46" y="29" width="26" height="30">
<path fill-rule="evenodd" clip-rule="evenodd" d="M46.2419 58.1504H71.6952V55.3223H46.2419V58.1504Z" fill="white"/>
<path fill-rule="evenodd" clip-rule="evenodd" d="M49.0701 55.3226V51.5518H68.867V55.3226H49.0701Z" fill="white"/>
<path fill-rule="evenodd" clip-rule="evenodd" d="M48.1274 34.5827V29.8691H51.8983V31.7546H56.6119V29.8691H61.3254V31.7546H66.039V29.8691H69.8098V34.5827" fill="white"/>
<path fill-rule="evenodd" clip-rule="evenodd" d="M69.8098 34.582L66.9817 37.4102H50.9556L48.1274 34.582" fill="white"/>
<path fill-rule="evenodd" clip-rule="evenodd" d="M66.9817 37.4106V49.1946H50.9556V37.4106" fill="white"/>
<path fill-rule="evenodd" clip-rule="evenodd" d="M66.9816 49.1943L68.3956 51.5511H49.5414L50.9555 49.1943" fill="white"/>
</mask>
<g mask="url(#mask0_2565_506)">
<rect x="44.8818" y="30.3691" width="28.1733" height="27.2814" fill="#316C41" stroke="#316C40"/>
</g>
<mask id="mask1_2565_506" style="mask-type:alpha" maskUnits="userSpaceOnUse" x="16" y="28" width="38" height="42">
<path fill-rule="evenodd" clip-rule="evenodd" d="M16.4065 69.3385H53.0227V65.27H16.4065V69.3385Z" fill="white"/>
<path fill-rule="evenodd" clip-rule="evenodd" d="M20.475 65.2708V59.8462H48.9542V65.2708H20.475Z" fill="white"/>
<path fill-rule="evenodd" clip-rule="evenodd" d="M19.1188 35.4351V28.6543H24.5434V31.3666H31.3242V28.6543H38.1049V31.3666H44.8857V28.6543H50.3103V35.4351" fill="white"/>
<path fill-rule="evenodd" clip-rule="evenodd" d="M50.3103 35.4346L46.2419 39.503H23.1872L19.1188 35.4346" fill="white"/>
<path fill-rule="evenodd" clip-rule="evenodd" d="M46.2419 39.5034V56.4554H23.1873V39.5034" fill="white"/>
<path fill-rule="evenodd" clip-rule="evenodd" d="M46.2418 56.4551L48.276 59.8455H21.153L23.1872 56.4551" fill="white"/>
</mask>
<g mask="url(#mask1_2565_506)">
<rect x="13.7307" y="28.6543" width="41.9677" height="40.6846" fill="url(#paint0_linear_2565_506)"/>
</g>
<defs>
<linearGradient id="paint0_linear_2565_506" x1="34.7146" y1="28.6543" x2="34.7146" y2="69.3389" gradientUnits="userSpaceOnUse">
<stop stop-color="#BFF3DE"/>
<stop offset="1" stop-color="#5CAC68"/>
</linearGradient>
</defs>
</svg>
