<svg width="75" height="75" viewBox="0 0 75 75" fill="none" xmlns="http://www.w3.org/2000/svg">
<mask id="mask0_2565_729" style="mask-type:alpha" maskUnits="userSpaceOnUse" x="13" y="15" width="48" height="44">
<path d="M19.8619 41.7855C30.6869 39.8346 46.6061 39.8346 54.2473 41.7855L57.4311 25.5281L47.8796 40.4849L47.4976 22.1466L40.8752 39.8346L37.0546 20.9761L33.234 39.8346L26.6116 22.1466L26.2296 40.4849L16.6781 25.5281L19.8619 41.7855Z" fill="white"/>
<path d="M19.8619 41.3526C19.8619 43.8997 21.7722 43.8997 23.0458 46.4468C24.3193 48.3571 24.3193 47.7203 23.6825 50.9041C21.7722 52.1777 22.409 54.088 22.409 54.088C20.4987 55.9983 22.409 57.2718 22.409 57.2718C30.687 58.5453 43.4223 58.5453 51.7002 57.2718C51.7002 57.2718 53.6105 55.9983 51.7002 54.088C51.7002 54.088 52.337 52.1777 50.4267 50.9041C49.7899 47.7203 49.7899 48.3571 51.0635 46.4468C52.337 43.8997 54.2473 43.8997 54.2473 41.3526C43.4223 39.4423 30.687 39.4423 19.8619 41.3526Z" fill="white"/>
<path d="M23.0458 46.4468C27.5031 45.1733 46.6061 45.1733 51.0635 46.4468H23.0458Z" fill="white"/>
<path d="M23.6825 50.9039C31.3237 49.6303 42.7855 49.6303 50.4267 50.9039H23.6825Z" fill="white"/>
<path d="M16.0413 26.0702C17.448 26.0702 18.5884 24.9298 18.5884 23.5231C18.5884 22.1164 17.448 20.9761 16.0413 20.9761C14.6346 20.9761 13.4943 22.1164 13.4943 23.5231C13.4943 24.9298 14.6346 26.0702 16.0413 26.0702Z" fill="white"/>
<path d="M26.2296 22.2499C27.6363 22.2499 28.7766 21.1095 28.7766 19.7028C28.7766 18.2961 27.6363 17.1558 26.2296 17.1558C24.8229 17.1558 23.6825 18.2961 23.6825 19.7028C23.6825 21.1095 24.8229 22.2499 26.2296 22.2499Z" fill="white"/>
<path d="M37.0545 20.976C38.4612 20.976 39.6016 19.8356 39.6016 18.4289C39.6016 17.0222 38.4612 15.8818 37.0545 15.8818C35.6478 15.8818 34.5074 17.0222 34.5074 18.4289C34.5074 19.8356 35.6478 20.976 37.0545 20.976Z" fill="white"/>
<path d="M47.8796 22.2499C49.2863 22.2499 50.4266 21.1095 50.4266 19.7028C50.4266 18.2961 49.2863 17.1558 47.8796 17.1558C46.4729 17.1558 45.3325 18.2961 45.3325 19.7028C45.3325 21.1095 46.4729 22.2499 47.8796 22.2499Z" fill="white"/>
<path d="M58.0678 26.0702C59.4745 26.0702 60.6149 24.9298 60.6149 23.5231C60.6149 22.1164 59.4745 20.9761 58.0678 20.9761C56.6611 20.9761 55.5208 22.1164 55.5208 23.5231C55.5208 24.9298 56.6611 26.0702 58.0678 26.0702Z" fill="white"/>
</mask>
<g mask="url(#mask0_2565_729)">
<rect x="12.0156" y="15.8818" width="50.0776" height="42.345" fill="#4C4C4C"/>
</g>
<mask id="mask1_2565_729" style="mask-type:alpha" maskUnits="userSpaceOnUse" x="0" y="0" width="75" height="75">
<circle cx="37.0545" cy="37.0545" r="33.0545" stroke="#33363F" stroke-width="8"/>
<path d="M59.0909 59.0908L15.0183 15.0181" stroke="#33363F" stroke-width="8"/>
</mask>
<g mask="url(#mask1_2565_729)">
<rect x="-5.24182" y="-0.547852" width="84.5927" height="75.5524" fill="url(#paint0_linear_2565_729)"/>
</g>
<defs>
<linearGradient id="paint0_linear_2565_729" x1="37.0545" y1="-0.547852" x2="37.0545" y2="75.0045" gradientUnits="userSpaceOnUse">
<stop stop-color="#D9D9D9"/>
<stop offset="1" stop-color="#939393"/>
</linearGradient>
</defs>
</svg>
