<svg width="70" height="57" viewBox="0 0 70 57" fill="none" xmlns="http://www.w3.org/2000/svg">
<path d="M50.8267 20.9866C49.6177 21.5742 46.9504 21.7606 45.953 17.8048C45.7385 16.9541 46.0671 15.0279 49.0974 14.1282C52.1277 13.2284 52.36 16.3026 52.0973 17.9522L50.8267 20.9866Z" fill="#775732"/>
<path d="M57.9506 27.9267C56.7393 27.3839 54.6655 25.1246 56.0604 20.43C56.3088 20.1795 56.9942 19.5909 57.7484 19.2414C58.6912 18.8045 62.6485 23.01 64.3308 26.318C65.6766 28.9644 60.6381 28.4932 57.9506 27.9267Z" fill="#775732"/>
<path d="M52.5157 38.8294C52.7481 37.1236 51.8568 37.0449 57.1232 34.1075C58.6535 33.7216 61.0743 35.0399 62.0793 36.4181C64.3921 38.8302 65.9418 41.6492 65.2789 43.261C63.1595 48.4144 60.4489 46.1718 58.5125 46.8792C56.5762 47.5866 55.556 46.0942 53.9867 44.6635C52.4175 43.2328 52.2477 40.7964 52.5157 38.8294Z" fill="#775732"/>
<path d="M50.8267 20.9866C49.6177 21.5742 46.9504 21.7606 45.953 17.8048C45.7385 16.9541 46.0671 15.0279 49.0974 14.1282C52.1277 13.2284 52.36 16.3026 52.0973 17.9522L50.8267 20.9866Z" stroke="#775732"/>
<path d="M57.9506 27.9267C56.7393 27.3839 54.6655 25.1246 56.0604 20.43C56.3088 20.1795 56.9942 19.5909 57.7484 19.2414C58.6912 18.8045 62.6485 23.01 64.3308 26.318C65.6766 28.9644 60.6381 28.4932 57.9506 27.9267Z" stroke="#775732"/>
<path d="M52.5157 38.8294C52.7481 37.1236 51.8568 37.0449 57.1232 34.1075C58.6535 33.7216 61.0743 35.0399 62.0793 36.4181C64.3921 38.8302 65.9418 41.6492 65.2789 43.261C63.1595 48.4144 60.4489 46.1718 58.5125 46.8792C56.5762 47.5866 55.556 46.0942 53.9867 44.6635C52.4175 43.2328 52.2477 40.7964 52.5157 38.8294Z" stroke="#775732"/>
<mask id="mask0_2565_295" style="mask-type:alpha" maskUnits="userSpaceOnUse" x="0" y="0" width="51" height="57">
<path fill-rule="evenodd" clip-rule="evenodd" d="M0 56.5853H50.9268V50.9268H0V56.5853Z" fill="white"/>
<path fill-rule="evenodd" clip-rule="evenodd" d="M5.65857 50.927V43.3823H45.2683V50.927H5.65857Z" fill="white"/>
<path fill-rule="evenodd" clip-rule="evenodd" d="M3.77234 9.43089V0H11.3171V3.77236H20.7479V0H30.1788V3.77236H39.6097V0H47.1544V9.43089" fill="white"/>
<path fill-rule="evenodd" clip-rule="evenodd" d="M47.1544 9.43066L41.4959 15.0892H9.43087L3.77234 9.43066" fill="white"/>
<path fill-rule="evenodd" clip-rule="evenodd" d="M41.4959 15.0894V38.6666H9.43091V15.0894" fill="white"/>
<path fill-rule="evenodd" clip-rule="evenodd" d="M41.4958 38.6665L44.3251 43.3819H6.60156L9.43083 38.6665" fill="white"/>
</mask>
<g mask="url(#mask0_2565_295)">
<rect x="-3.72156" width="58.3699" height="56.5853" fill="url(#paint0_linear_2565_295)"/>
</g>
<defs>
<linearGradient id="paint0_linear_2565_295" x1="25.4634" y1="0" x2="25.4634" y2="56.5853" gradientUnits="userSpaceOnUse">
<stop stop-color="#F7E1B5"/>
<stop offset="1" stop-color="#BA945C"/>
</linearGradient>
</defs>
</svg>
