<svg width="70" height="57" viewBox="0 0 70 57" fill="none" xmlns="http://www.w3.org/2000/svg">
<path d="M4.98625 27.3454C5.07653 26.6129 3.75478 26.601 3.73718 25.76C3.71246 24.9219 4.26619 24.5704 3.90257 23.7465C3.55198 22.9174 3.68823 21.8904 3.3732 21.5856C3.06842 21.2767 3.67844 20.9838 3.39092 20.4862C3.11037 19.9859 3.10812 19.6146 3.1516 19.0599C3.20329 18.5018 2.88227 16.9819 2.55775 16.5135C2.24458 16.0404 2.3584 15.3099 2.29714 14.9232C2.28075 14.8016 2.27732 14.7021 2.28049 14.6235C2.28187 14.5902 2.29934 14.568 2.32081 14.5593C2.32081 14.5593 2.32081 14.5593 2.32081 14.5593C2.32082 14.5592 2.32083 14.5592 2.32085 14.5592C2.32085 14.5592 2.32085 14.5592 2.32085 14.5592C2.34756 14.5484 2.3807 14.5585 2.39651 14.5942C2.47343 14.7674 2.60626 15.019 2.82892 15.2897C3.25465 15.79 3.03967 15.9507 3.44704 16.6943C3.85839 17.4362 4.34489 17.7849 4.51364 18.7857C4.6507 19.7993 5.64873 19.6403 5.63684 21.1544C5.56836 22.6913 6.67483 22.4016 7.37031 23.6237C8.06552 24.8459 8.0082 26.7676 8.344 27.5381C8.68985 28.3045 9.23283 29.302 9.44493 30.5013C9.65367 31.7019 10.5882 32.9097 10.6662 34.2968C10.6753 34.4603 10.6854 34.6316 10.6959 34.8081C10.7764 36.1286 10.7907 37.7799 10.7726 38.6047C10.7459 39.5421 10.7851 39.752 11.097 40.5175C11.2768 40.9573 11.3288 41.6425 11.3315 42.2379C11.3347 42.5368 11.238 42.508 11.0826 42.2688C10.8521 41.9203 10.7858 41.5845 10.5256 41.4623C9.99374 41.2229 9.69469 41.1507 9.71081 40.5698C9.75243 39.9786 9.00303 40.0118 8.92888 39.707C8.86738 39.3972 9.28764 39.2323 8.34184 37.9133C7.83088 37.2066 7.49254 36.6515 7.25409 36.2033C7.04786 35.8167 6.9029 35.5149 6.77708 35.2673C6.50568 34.7326 6.55844 33.365 6.12401 32.4905C5.68993 31.6157 5.27047 29.6498 4.82437 28.9696C4.38045 28.2885 4.88828 28.0809 4.98625 27.3454Z" fill="#4C4C4C"/>
<path d="M64.077 27.3454C63.9867 26.6129 65.3085 26.601 65.3261 25.76C65.3508 24.9219 64.797 24.5704 65.1607 23.7465C65.5113 22.9174 65.375 21.8904 65.69 21.5856C65.9948 21.2767 65.3848 20.9838 65.6723 20.4862C65.9529 19.9859 65.9551 19.6146 65.9116 19.0599C65.8599 18.5018 66.181 16.9819 66.5055 16.5135C66.8187 16.0404 66.7048 15.3099 66.7661 14.9232C66.7825 14.8016 66.7859 14.7021 66.7827 14.6235C66.7814 14.5902 66.7639 14.568 66.7424 14.5593C66.7424 14.5593 66.7424 14.5593 66.7424 14.5593C66.7424 14.5592 66.7424 14.5592 66.7424 14.5592C66.7424 14.5592 66.7424 14.5592 66.7424 14.5592C66.7157 14.5484 66.6825 14.5585 66.6667 14.5942C66.5898 14.7674 66.457 15.019 66.2343 15.2897C65.8086 15.79 66.0236 15.9507 65.6162 16.6943C65.2048 17.4362 64.7183 17.7849 64.5496 18.7857C64.4125 19.7993 63.4145 19.6403 63.4264 21.1544C63.4949 22.6913 62.3884 22.4016 61.6929 23.6237C60.9977 24.8459 61.055 26.7676 60.7192 27.5381C60.3734 28.3045 59.8304 29.302 59.6183 30.5013C59.4096 31.7019 58.475 32.9097 58.397 34.2968C58.3879 34.4603 58.3779 34.6316 58.3673 34.8081C58.2868 36.1286 58.2725 37.7799 58.2906 38.6047C58.3174 39.5421 58.2781 39.752 57.9662 40.5175C57.7864 40.9573 57.7345 41.6425 57.7317 42.2379C57.7286 42.5368 57.8252 42.508 57.9806 42.2688C58.2111 41.9203 58.2774 41.5845 58.5377 41.4623C59.0695 41.2229 59.3685 41.1507 59.3524 40.5698C59.3108 39.9786 60.0602 40.0118 60.1344 39.707C60.1959 39.3972 59.7756 39.2323 60.7214 37.9133C61.2324 37.2066 61.5707 36.6515 61.8091 36.2033C62.0154 35.8167 62.1603 35.5149 62.2862 35.2673C62.5576 34.7326 62.5048 33.365 62.9392 32.4905C63.3733 31.6157 63.7928 29.6498 64.2389 28.9696C64.6828 28.2885 64.175 28.0809 64.077 27.3454Z" fill="#4C4C4C"/>
<mask id="mask0_2565_687" style="mask-type:alpha" maskUnits="userSpaceOnUse" x="9" y="0" width="51" height="57">
<path fill-rule="evenodd" clip-rule="evenodd" d="M9.06824 56.5853H59.995V50.9268H9.06824V56.5853Z" fill="white"/>
<path fill-rule="evenodd" clip-rule="evenodd" d="M14.7268 50.927V43.3823H54.3365V50.927H14.7268Z" fill="white"/>
<path fill-rule="evenodd" clip-rule="evenodd" d="M12.8406 9.43089V0H20.3853V3.77236H29.8162V0H39.2471V3.77236H48.678V0H56.2227V9.43089" fill="white"/>
<path fill-rule="evenodd" clip-rule="evenodd" d="M56.2227 9.43066L50.5641 15.0892H18.4991L12.8406 9.43066" fill="white"/>
<path fill-rule="evenodd" clip-rule="evenodd" d="M50.5642 15.0894V38.6666H18.4991V15.0894" fill="white"/>
<path fill-rule="evenodd" clip-rule="evenodd" d="M50.5641 38.6665L53.3934 43.3819H15.6698L18.4991 38.6665" fill="white"/>
</mask>
<g mask="url(#mask0_2565_687)">
<rect x="5.34668" width="58.3699" height="56.5853" fill="url(#paint0_linear_2565_687)"/>
</g>
<defs>
<linearGradient id="paint0_linear_2565_687" x1="34.5316" y1="0" x2="34.5316" y2="56.5853" gradientUnits="userSpaceOnUse">
<stop stop-color="#D9D9D9"/>
<stop offset="1" stop-color="#939393"/>
</linearGradient>
</defs>
</svg>
