<svg width="41" height="72" viewBox="0 0 41 72" fill="none" xmlns="http://www.w3.org/2000/svg">
<mask id="mask0_2565_228" style="mask-type:alpha" maskUnits="userSpaceOnUse" x="0" y="3" width="41" height="69">
<path d="M20.7188 71.5001C27.8281 71.5001 40.9023 66.0157 40.9023 50.7813C40.9023 36.1563 30.2656 33.3125 30.2656 28.2344C30.2656 28.1513 30.2685 28.0677 30.2741 27.9835C30.4869 24.7878 28.501 20.5461 26 22.5469C23.6467 24.4296 21.4678 27.2284 19.8071 29.6899C18.1925 32.083 14.6016 32.4327 12.6493 30.3061C11.5694 29.1297 10.451 27.9838 9.54689 27.2188C7.8973 25.823 5.69283 25.2198 4.27049 24.9638C3.35497 24.7989 2.31506 25.1727 2.47463 26.0891C2.86662 28.3405 6.13382 32.5834 6.13382 36.9688C6.13382 42.6563 7.62939e-06 44.5507 7.62939e-06 50.7813C7.62939e-06 65.4063 13.6094 71.5001 20.7188 71.5001Z" fill="url(#paint0_linear_2565_228)"/>
<path d="M23.2228 14.9012C23.2429 13.9286 23.1057 13.2413 22.9399 12.6734C22.4757 11.0829 23.9598 10.0521 25.03 11.317C25.921 12.3701 26.4652 13.8639 26.3803 15.6343C26.3078 17.1452 25.6497 18.2578 24.8594 19.0717C23.7134 20.2518 22.2255 19.4667 22.6855 17.8874C22.9338 17.0351 23.1991 16.0514 23.2228 14.9012Z" fill="#FA9955"/>
<path d="M9.34375 10.1563C9.34375 7.24558 9.97226 5.22338 10.843 3.76962C11.8162 2.14497 13.8099 3.64224 13.6572 5.52987C13.6266 5.90914 13.6094 6.30094 13.6094 6.70313C13.6094 10.1563 18.2813 16.25 18.2813 19.0938C18.2813 20.5967 17.7706 22.4967 17.0208 24.1043C16.5184 25.1815 15.0691 24.4727 15.0691 23.284C15.0691 20.5156 9.34375 17.4011 9.34375 10.1563Z" fill="#FA9955"/>
</mask>
<g mask="url(#mask0_2565_228)">
<rect x="-12.9093" y="0.0341797" width="66.7208" height="71.4658" fill="url(#paint1_linear_2565_228)"/>
<path d="M19.342 43.352C20.768 44.7706 21.987 46.2423 22.928 47.8636C23.583 48.9922 25.4164 49.1047 26 47.9376C26.7075 46.4676 28.7388 46.2876 29.4812 47.7402C30.7898 50.3008 30.9286 52.2511 30.9286 54.6406C30.9286 60.3281 24.6462 63.3751 20.3806 63.3751C16.115 63.3751 10.2244 59.9219 10.2244 53.8282C10.2244 50.1199 12.1478 46.5291 14.499 43.5922C15.7147 42.0737 17.9629 41.9801 19.342 43.352Z" fill="#202020"/>
</g>
<defs>
<linearGradient id="paint0_linear_2565_228" x1="20.4512" y1="16.0469" x2="20.4512" y2="91.4726" gradientUnits="userSpaceOnUse">
<stop stop-color="#FAA057"/>
<stop offset="1" stop-color="#F03838"/>
</linearGradient>
<linearGradient id="paint1_linear_2565_228" x1="20.4511" y1="0.0341797" x2="20.4511" y2="71.5" gradientUnits="userSpaceOnUse">
<stop stop-color="#F0C7B7"/>
<stop offset="1" stop-color="#BC7050"/>
</linearGradient>
</defs>
</svg>
