<svg width="73" height="75" viewBox="0 0 73 75" fill="none" xmlns="http://www.w3.org/2000/svg">
<mask id="mask0_2766_206" style="mask-type:alpha" maskUnits="userSpaceOnUse" x="1" y="6" width="71" height="68">
<path d="M19.2887 47.9608L46.498 12.9026L66.0487 6.6481L59.9038 26.3085L25.9539 54.626" fill="white"/>
<path d="M17.0243 45.6966L28.6606 57.3329C29.4075 58.0797 29.4079 59.2921 28.6617 60.0383L26.7737 61.9263L12.5216 47.6743L14.5003 45.6956C15.197 44.9989 16.3271 44.9994 17.0243 45.6966Z" fill="white"/>
<path d="M14.4402 49.5928L12.0507 51.9823C11.5201 52.5129 11.5204 53.3725 12.0514 53.9035L20.4896 62.3417C21.096 62.9481 22.0823 62.9416 22.6796 62.3271L24.8963 60.0488L14.4402 49.5928Z" fill="white"/>
<path d="M18.6259 60.4777L13.9734 55.8252L3.63656 66.162L8.28903 70.8145L18.6259 60.4777Z" fill="white"/>
<path d="M2.09609 67.7026L3.6366 66.1621L8.28907 70.8146L6.56198 72.5417C5.51786 73.5858 3.82607 73.5851 2.78115 72.5402L2.09767 71.8567C0.949969 70.709 0.94926 68.8494 2.09609 67.7026Z" fill="white"/>
<path d="M53.5178 47.9608L26.3085 12.9026L6.75779 6.6481L12.9027 26.3085L46.8526 54.626" fill="white"/>
<path d="M55.7825 45.6966L44.1461 57.3329C43.3993 58.0797 43.3988 59.2921 44.1451 60.0383L46.0331 61.9263L60.2851 47.6743L58.3064 45.6956C57.6098 44.9989 56.4796 44.9994 55.7825 45.6966Z" fill="white"/>
<path d="M58.3665 49.5928L60.756 51.9823C61.2866 52.5129 61.2863 53.3725 60.7552 53.9035L52.3171 62.3417C51.7107 62.9481 50.7244 62.9416 50.127 62.3271L47.9104 60.0488L58.3665 49.5928Z" fill="white"/>
<path d="M54.1808 60.4777L58.8333 55.8252L69.1701 66.162L64.5176 70.8145L54.1808 60.4777Z" fill="white"/>
<path d="M70.7107 67.7026L69.1702 66.1621L64.5177 70.8146L66.2448 72.5417C67.2889 73.5858 68.9807 73.5851 70.0256 72.5402L70.7091 71.8567C71.8568 70.709 71.8575 68.8494 70.7107 67.7026Z" fill="white"/>
</mask>
<g mask="url(#mask0_2766_206)">
<path d="M0.0981445 5.54053H72.5825V74.4312H0.0981445V5.54053Z" fill="url(#paint0_linear_2766_206)"/>
<path d="M23.0811 51.0823C33.8422 39.9546 48.2082 25.0987 58.9677 13.9692L23.0811 51.0823Z" fill="white"/>
<path d="M22.2965 50.3246L32.0572 40.8509L32.9894 41.6905L23.7073 51.7219L22.2965 50.3246Z" fill="#202020"/>
<path d="M41.5927 31.168L58.9556 13.9606L42.366 31.917L41.5927 31.168Z" fill="#202020"/>
<path d="M49.7256 51.0823C38.9644 39.9546 24.5985 25.0987 13.839 13.9692L49.7256 51.0823Z" fill="black"/>
<path d="M50.5101 50.3248L13.8407 13.9706L48.9428 51.8408L50.5101 50.3248Z" fill="#202020"/>
</g>
<defs>
<linearGradient id="paint0_linear_2766_206" x1="36.3403" y1="5.54053" x2="36.3403" y2="74.4312" gradientUnits="userSpaceOnUse">
<stop stop-color="#F7E1B5"/>
<stop offset="1" stop-color="#B89158"/>
</linearGradient>
</defs>
</svg>
