<svg width="56" height="59" viewBox="0 0 56 59" fill="none" xmlns="http://www.w3.org/2000/svg">
<mask id="mask0_2565_349" style="mask-type:alpha" maskUnits="userSpaceOnUse" x="0" y="0" width="56" height="50">
<path d="M7.47221 30.3972C20.175 28.1079 38.8557 28.1079 47.8224 30.3972L51.5585 11.3197L40.3501 28.871L39.9018 7.35161L32.1306 28.1079L27.6473 5.97803L23.1639 28.1079L15.3928 7.35161L14.9445 28.871L3.73608 11.3197L7.47221 30.3972Z" fill="white"/>
<path d="M7.47229 29.8888C7.47229 32.8777 9.71397 32.8777 11.2084 35.8666C12.7029 38.1083 12.7029 37.361 11.9556 41.0972C9.71397 42.5916 10.4612 44.8333 10.4612 44.8333C8.21952 47.075 10.4612 48.5694 10.4612 48.5694C20.1751 50.0639 35.1196 50.0639 44.8336 48.5694C44.8336 48.5694 47.0752 47.075 44.8336 44.8333C44.8336 44.8333 45.5808 42.5916 43.3391 41.0972C42.5919 37.361 42.5919 38.1083 44.0863 35.8666C45.5808 32.8777 47.8225 32.8777 47.8225 29.8888C35.1196 27.6471 20.1751 27.6471 7.47229 29.8888Z" fill="white"/>
<path d="M11.2084 35.8669C16.439 34.3725 38.8557 34.3725 44.0863 35.8669H11.2084Z" fill="white"/>
<path d="M11.9556 41.0974C20.9223 39.6029 34.3723 39.6029 43.339 41.0974H11.9556Z" fill="white"/>
<path d="M2.9889 11.9558C4.63963 11.9558 5.9778 10.6177 5.9778 8.96693C5.9778 7.3162 4.63963 5.97803 2.9889 5.97803C1.33818 5.97803 0 7.3162 0 8.96693C0 10.6177 1.33818 11.9558 2.9889 11.9558Z" fill="white"/>
<path d="M14.9445 7.47243C16.5952 7.47243 17.9334 6.13426 17.9334 4.48353C17.9334 2.83281 16.5952 1.49463 14.9445 1.49463C13.2937 1.49463 11.9556 2.83281 11.9556 4.48353C11.9556 6.13426 13.2937 7.47243 14.9445 7.47243Z" fill="white"/>
<path d="M27.6473 5.9778C29.2981 5.9778 30.6363 4.63963 30.6363 2.9889C30.6363 1.33818 29.2981 0 27.6473 0C25.9966 0 24.6584 1.33818 24.6584 2.9889C24.6584 4.63963 25.9966 5.9778 27.6473 5.9778Z" fill="white"/>
<path d="M40.3502 7.47243C42.001 7.47243 43.3391 6.13426 43.3391 4.48353C43.3391 2.83281 42.001 1.49463 40.3502 1.49463C38.6995 1.49463 37.3613 2.83281 37.3613 4.48353C37.3613 6.13426 38.6995 7.47243 40.3502 7.47243Z" fill="white"/>
<path d="M52.3058 11.9558C53.9565 11.9558 55.2947 10.6177 55.2947 8.96693C55.2947 7.3162 53.9565 5.97803 52.3058 5.97803C50.6551 5.97803 49.3169 7.3162 49.3169 8.96693C49.3169 10.6177 50.6551 11.9558 52.3058 11.9558Z" fill="white"/>
</mask>
<g mask="url(#mask0_2565_349)">
<rect x="-1.73486" width="58.7645" height="49.6906" fill="#775732"/>
</g>
<path d="M27.6473 16.1699C24.5773 16.1699 22.0908 18.6565 22.0908 21.7264C22.0908 22.9627 22.4936 24.1018 23.1743 25.0325C20.4655 26.5884 18.618 29.4916 18.618 32.8394C18.618 35.6593 19.9238 38.1736 21.9658 39.8267C17.7984 41.2992 11.6724 47.5363 11.6724 58.5382H43.6222C43.6222 47.5363 37.4962 41.2992 33.3288 39.8267C35.3708 38.1736 36.6766 35.6593 36.6766 32.8394C36.6766 29.4916 34.8291 26.5884 32.1203 25.0325C32.8009 24.1018 33.2038 22.9627 33.2038 21.7264C33.2038 18.6565 30.7173 16.1699 27.6473 16.1699Z" fill="url(#paint0_linear_2565_349)"/>
<defs>
<linearGradient id="paint0_linear_2565_349" x1="27.6473" y1="16.1699" x2="27.6473" y2="58.5382" gradientUnits="userSpaceOnUse">
<stop stop-color="#F7E1B5"/>
<stop offset="1" stop-color="#B89158"/>
</linearGradient>
</defs>
</svg>
