<svg width="72" height="58" viewBox="0 0 72 58" fill="none" xmlns="http://www.w3.org/2000/svg">
<path d="M62.1053 48.4604L64.7793 53.0919H59.4313L62.1053 48.4604Z" fill="#A56244"/>
<path d="M59.0177 39.2153L61.6916 43.8468H56.3437L59.0177 39.2153Z" fill="#A56244"/>
<path d="M68.2806 27.9072L70.9545 32.5387H65.6066L68.2806 27.9072Z" fill="#A56244"/>
<path d="M60.497 4.62695L63.1709 9.2584H57.823L60.497 4.62695Z" fill="#A56244"/>
<path d="M16.9558 4.62695L19.6298 9.2584H14.2819L16.9558 4.62695Z" fill="#A56244"/>
<path d="M4.10966 23.0444L6.78363 27.6759H1.4357L4.10966 23.0444Z" fill="#A56244"/>
<path d="M10.7806 35.6904L13.4545 40.3219H8.1066L10.7806 35.6904Z" fill="#A56244"/>
<path d="M13.8682 48.4604L16.5421 53.0919H11.1942L13.8682 48.4604Z" fill="#A56244"/>
<path d="M3.08763 42.3027L5.76159 46.9342H0.413664L3.08763 42.3027Z" fill="#A56244"/>
<path d="M68.2806 36.1274L70.9545 40.7589H65.6066L68.2806 36.1274Z" fill="#A56244"/>
<path d="M50.1246 2.8457L52.7985 7.47715H47.4506L50.1246 2.8457Z" fill="#A56244"/>
<path d="M35.6841 0C31.5191 0 28.1456 3.37347 28.1456 7.53847C28.1456 9.21578 28.6922 10.7612 29.6156 12.0239C25.9406 14.1346 23.4341 18.0735 23.4341 22.6154C23.4341 26.4412 25.2056 29.8523 27.976 32.095C22.3221 34.0927 14.011 42.5547 14.011 57.4808H57.3572C57.3572 42.5547 49.046 34.0927 43.3922 32.095C46.1626 29.8523 47.9341 26.4412 47.9341 22.6154C47.9341 18.0735 45.4276 14.1346 41.7526 12.0239C42.676 10.7612 43.2226 9.21578 43.2226 7.53847C43.2226 3.37347 39.8491 0 35.6841 0Z" fill="url(#paint0_linear_2565_94)"/>
<defs>
<linearGradient id="paint0_linear_2565_94" x1="35.6841" y1="0" x2="35.6841" y2="57.4808" gradientUnits="userSpaceOnUse">
<stop stop-color="#F1C9BA"/>
<stop offset="1" stop-color="#BA6E4D"/>
</linearGradient>
</defs>
</svg>
