<svg width="72" height="56" viewBox="0 0 72 56" fill="none" xmlns="http://www.w3.org/2000/svg">
<path d="M9.26271 9.79346L6.58875 5.16201L11.9367 5.16201L9.26271 9.79346Z" fill="#775732"/>
<path d="M12.3503 19.0386L9.67633 14.4071L15.0243 14.4071L12.3503 19.0386Z" fill="#775732"/>
<path d="M3.08766 30.3467L0.4137 25.7152L5.76163 25.7152L3.08766 30.3467Z" fill="#775732"/>
<path d="M10.8711 53.627L8.19709 48.9955L13.545 48.9955L10.8711 53.627Z" fill="#775732"/>
<path d="M45.8189 47.4512L43.145 42.8197L48.4929 42.8197L45.8189 47.4512Z" fill="#775732"/>
<path d="M54.4122 53.627L51.7382 48.9955L57.0862 48.9955L54.4122 53.627Z" fill="#775732"/>
<path d="M67.2584 35.2095L64.5844 30.578L69.9323 30.578L67.2584 35.2095Z" fill="#775732"/>
<path d="M60.5875 22.5635L57.9135 17.932L63.2614 17.932L60.5875 22.5635Z" fill="#775732"/>
<path d="M57.4998 9.79346L54.8259 5.16201L60.1738 5.16201L57.4998 9.79346Z" fill="#775732"/>
<path d="M68.2804 15.9512L65.6064 11.3197L70.9543 11.3197L68.2804 15.9512Z" fill="#775732"/>
<path d="M3.08766 22.1265L0.4137 17.495L5.76163 17.495L3.08766 22.1265Z" fill="#775732"/>
<path d="M21.2434 55.4082L18.5695 50.7768L23.9174 50.7768L21.2434 55.4082Z" fill="#775732"/>
<mask id="mask0_2565_372" style="mask-type:alpha" maskUnits="userSpaceOnUse" x="8" y="0" width="56" height="56">
<path fill-rule="evenodd" clip-rule="evenodd" d="M13.2313 50.7262C18.8694 49.113 30.0458 51.4414 35.6839 47.3999C41.322 51.4414 52.4984 49.113 58.1365 50.7262C58.1365 50.7262 60.8807 51.6243 63.126 54.0525C61.995 55.6658 60.3818 55.699 58.1365 54.8841C52.4984 53.2708 41.322 55.6492 35.6839 53.2209C30.0458 55.6492 18.8694 53.2708 13.2313 54.8841C10.986 55.699 9.37277 55.6658 8.24182 54.0525C10.4871 51.6243 13.2313 50.7262 13.2313 50.7262Z" fill="url(#paint0_linear_2565_372)"/>
<path fill-rule="evenodd" clip-rule="evenodd" d="M23.2102 44.0738C27.3681 48.2317 43.9997 48.2317 48.1575 44.0738C48.9891 41.579 48.1575 40.7475 48.1575 40.7475C48.1575 36.5896 43.9997 34.0948 43.9997 34.0948C53.147 31.6001 53.9786 14.9685 35.6839 8.31592C17.3892 14.9685 18.2207 31.6001 27.3681 34.0948C27.3681 34.0948 23.2102 36.5896 23.2102 40.7475C23.2102 40.7475 22.3786 41.579 23.2102 44.0738Z" fill="url(#paint1_linear_2565_372)"/>
<path fill-rule="evenodd" clip-rule="evenodd" d="M39.8418 4.15789C39.8418 5.26063 39.4037 6.31821 38.624 7.09796C37.8442 7.87772 36.7866 8.31578 35.6839 8.31578C34.5811 8.31578 33.5236 7.87772 32.7438 7.09796C31.9641 6.31821 31.526 5.26063 31.526 4.15789C31.526 3.05515 31.9641 1.99757 32.7438 1.21782C33.5236 0.438062 34.5811 0 35.6839 0C36.7866 0 37.8442 0.438062 38.624 1.21782C39.4037 1.99757 39.8418 3.05515 39.8418 4.15789Z" fill="url(#paint2_linear_2565_372)"/>
</mask>
<g mask="url(#mask0_2565_372)">
<rect x="6.31451" y="-1.61523" width="58.7388" height="58.7388" fill="url(#paint3_linear_2565_372)"/>
</g>
<defs>
<linearGradient id="paint0_linear_2565_372" x1="35.6839" y1="47.3999" x2="35.6839" y2="55.4083" gradientUnits="userSpaceOnUse">
<stop stop-color="#C3A07C"/>
<stop offset="1" stop-color="#AB815B"/>
</linearGradient>
<linearGradient id="paint1_linear_2565_372" x1="35.6839" y1="8.31592" x2="35.6839" y2="47.1922" gradientUnits="userSpaceOnUse">
<stop stop-color="#E6CEAC"/>
<stop offset="1" stop-color="#BC9772"/>
</linearGradient>
<linearGradient id="paint2_linear_2565_372" x1="35.6839" y1="0" x2="35.6839" y2="8.31578" gradientUnits="userSpaceOnUse">
<stop stop-color="#F3DFBF"/>
<stop offset="1" stop-color="#E3CAA8"/>
</linearGradient>
<linearGradient id="paint3_linear_2565_372" x1="35.6839" y1="-1.61523" x2="35.6839" y2="57.1235" gradientUnits="userSpaceOnUse">
<stop stop-color="#F7E1B5"/>
<stop offset="1" stop-color="#BA945C"/>
</linearGradient>
</defs>
</svg>
