<?xml version="1.0" encoding="UTF-8" standalone="no"?>
<svg
   version="1.1"
   width="1500"
   height="1500"
   id="svg1"
   sodipodi:docname="WhitePawn.svg"
   inkscape:version="1.4 (86a8ad7, 2024-10-11)"
   inkscape:export-filename="BlackPawnTransparent.png"
   inkscape:export-xdpi="96"
   inkscape:export-ydpi="96"
   xmlns:inkscape="http://www.inkscape.org/namespaces/inkscape"
   xmlns:sodipodi="http://sodipodi.sourceforge.net/DTD/sodipodi-0.dtd"
   xmlns="http://www.w3.org/2000/svg"
   xmlns:svg="http://www.w3.org/2000/svg">
  <defs
     id="defs1" />
  <sodipodi:namedview
     id="namedview1"
     pagecolor="#505050"
     bordercolor="#ffffff"
     borderopacity="1"
     inkscape:showpageshadow="0"
     inkscape:pageopacity="0"
     inkscape:pagecheckerboard="1"
     inkscape:deskcolor="#505050"
     inkscape:zoom="0.41984465"
     inkscape:cx="689.54076"
     inkscape:cy="818.15976"
     inkscape:window-width="1920"
     inkscape:window-height="1057"
     inkscape:window-x="1912"
     inkscape:window-y="-8"
     inkscape:window-maximized="1"
     inkscape:current-layer="svg1" />
  <path
     d="m 749.03361,77.105547 c -97.61731,0 -176.68292,79.065603 -176.68292,176.682923 0,39.31195 12.80951,75.53194 34.45317,105.12633 -86.13292,49.47122 -144.87999,141.78804 -144.87999,248.2395 0,89.66658 41.52048,169.61561 106.45145,222.17877 -132.51218,46.82098 -327.3051,245.14753 -327.3051,594.97973 H 1256.997 c 0,-349.8322 -194.7929,-548.15875 -327.30511,-594.97973 64.93098,-52.56316 106.45141,-132.51219 106.45141,-222.17877 0,-106.45146 -58.74702,-198.76828 -144.87994,-248.2395 21.64366,-29.59439 34.45317,-65.81438 34.45317,-105.12633 0,-97.61732 -79.06561,-176.682923 -176.68292,-176.682923 z"
     style="opacity:1;fill:#ffffff;fill-opacity:1;fill-rule:nonzero;stroke:#000000;stroke-width:66.2561;stroke-linecap:round;stroke-linejoin:miter;stroke-miterlimit:4;stroke-dasharray:none;stroke-opacity:1"
     id="path1" />
</svg>
