<?xml version="1.0" encoding="UTF-8" standalone="no"?>
<svg
   version="1.1"
   x="0px"
   y="0px"
   viewBox="0 0 1500 1500"
   xml:space="preserve"
   id="svg3"
   sodipodi:docname="WhitePharaoh.svg"
   width="1500"
   height="1500"
   inkscape:version="1.4 (86a8ad7, 2024-10-11)"
   inkscape:export-filename="BlackPharaohTransparent.png"
   inkscape:export-xdpi="96"
   inkscape:export-ydpi="96"
   xmlns:inkscape="http://www.inkscape.org/namespaces/inkscape"
   xmlns:sodipodi="http://sodipodi.sourceforge.net/DTD/sodipodi-0.dtd"
   xmlns="http://www.w3.org/2000/svg"
   xmlns:svg="http://www.w3.org/2000/svg"><defs
     id="defs3" /><sodipodi:namedview
     id="namedview3"
     pagecolor="#505050"
     bordercolor="#ffffff"
     borderopacity="1"
     inkscape:showpageshadow="0"
     inkscape:pageopacity="0"
     inkscape:pagecheckerboard="1"
     inkscape:deskcolor="#505050"
     inkscape:zoom="0.35355339"
     inkscape:cx="782.0601"
     inkscape:cy="1039.447"
     inkscape:window-width="1920"
     inkscape:window-height="1057"
     inkscape:window-x="1912"
     inkscape:window-y="-8"
     inkscape:window-maximized="1"
     inkscape:current-layer="svg3" /><path
     style="fill:#ffffff;fill-opacity:1;stroke:#000000;stroke-width:50;stroke-dasharray:none;stroke-opacity:1"
     d="m 510.96576,1427.9032 c -12.10604,0.013 168.89517,-685.87851 168.89517,-692.24043 0,-7.67014 -5.02361,-12.54841 -12.92231,-12.54841 -3.02916,0 -106.45117,19.44514 -239.5982,43.21153 -133.14695,23.76636 -236.16945,42.59986 -243.19761,43.21158 -4.08543,0.35577 -0.1918,-218.61704 -0.1918,-218.61704 -0.78075,-3.70123 122.04704,13.21634 253.59953,26.12948 219.93479,21.58866 223.70895,23.2465 229.84681,20.59672 7.49573,-3.23637 11.35826,-10.56366 7.73577,-14.67522 -1.31831,-1.49535 -13.30256,-7.57651 -26.63309,-13.51317 -36.18708,-16.11575 -85.77819,-42.835 -122.24908,-65.86669 C 434.41765,485.59797 376.8218,422.85374 358.77939,361.15026 353.16981,341.96598 352.50533,302.87095 357.44329,282.54413 386.23234,164.03804 490.0259,92.134025 661.3313,72.022559 c 40.06352,-4.703493 118.35551,-5.629275 161.10646,-1.905023 98.32779,8.565823 165.07998,28.819914 221.23474,67.127504 38.3743,26.17813 62.7939,52.79762 82.175,89.57767 15.3393,29.11005 21.7245,51.80597 23.6184,83.9514 2.5389,43.09085 -7.697,74.99792 -37.0921,115.62292 -45.0179,62.21625 -141.95631,131.63594 -253.6714,181.65934 -17.39597,7.78954 -28.49181,14.06254 -29.48471,16.6691 -2.27893,5.98283 1.28545,11.90404 8.4374,14.01718 4.45019,1.31468 57.24861,-4.72516 230.00031,-21.68668 190.4164,-18.69602 255.5166,-28.336 254.7721,-25.62515 v 110.11942 c 0,104.01156 -0.2282,110.0629 -4.1285,109.09997 -2.2708,-0.56124 -113.4246,-20.50097 -247.0089,-44.31155 0,0 -210.44237,-47.95326 -217.51598,-48.22742 -8.51254,-0.32849 -16.59598,4.61504 -15.95572,13.18982 0.52672,7.05275 139.30848,648.16724 138.53083,693.06214 -0.058,3.1011 -60.15001,3.1154 -224.98743,3.288 z m 390.381,-1036.41771 c 38.25138,-60.70823 19.37141,-101.67184 1.65283,-125.6067 -17.71868,-23.93486 -84.18692,-79.09759 -154.29408,-78.70495 -68.54514,0.38393 -136.11965,53.71785 -153.13014,80.21162 -17.0105,26.49376 -28.27762,61.38767 1.19881,123.50798 29.47644,62.12031 147.21014,136.83386 152.31297,136.83386 5.10286,0 114.00837,-75.53352 152.25972,-136.24181 z"
     id="path3"
     sodipodi:nodetypes="ssssscsssssscsssssssssscssssscsszzszzzzz" /></svg>
