<?xml version="1.0" encoding="UTF-8" standalone="no"?>
<!-- Created with Inkscape (http://www.inkscape.org/) -->

<svg
   width="470.862"
   height="470.86197"
   viewBox="0 0 470.862 470.86197"
   version="1.1"
   id="svg1"
   xml:space="preserve"
   xmlns="http://www.w3.org/2000/svg"
   xmlns:svg="http://www.w3.org/2000/svg"><defs
     id="defs1" /><g
     id="layer1"
     style="display:none"
     transform="translate(-23.712463,-10.162491)"><circle
       style="display:inline;fill:#7ebb04;fill-opacity:1;stroke:#31ff53;stroke-width:0;stroke-dasharray:none;stroke-opacity:1"
       id="path5"
       cx="259.14346"
       cy="245.59349"
       r="235.431" /><path
       style="fill:#000000;fill-opacity:0.266129;stroke:#949494;stroke-width:3.6995;stroke-linejoin:miter;stroke-dasharray:none;stroke-opacity:0.16129"
       d="m 86.984524,248.73515 c 0,0 -1.264096,6.67743 1.657423,9.96841 6.613076,7.44936 109.163403,110.79487 117.954543,118.85902 1.7789,1.63179 4.85861,4.62762 11.15322,5.16491 3.14467,0.26841 7.13465,-2.89246 9.65614,-4.79065 4.22556,-3.18102 195.99963,-194.60747 200.75789,-199.48538 3.66939,-3.76166 -1.19766,-15.7193 -1.19766,-15.7193 L 216.17778,344.6269 Z"
       id="path7" /><path
       style="display:inline;fill:#ffffff;stroke:#ffffff;stroke-width:7.399;stroke-linejoin:miter;stroke-dasharray:none"
       d="m 217.07602,269.7731 c 0,0 -73.92861,-73.16661 -75.75204,-74.25497 -2.571,-1.53457 -6.31319,-1.35645 -8.98246,0 -2.26895,1.15302 -40.260236,39.86894 -42.516959,42.21754 -1.410412,1.46784 -1.367016,3.95973 -1.19766,5.98831 0.186594,2.23506 0.814628,4.69657 2.395321,6.28772 2.793023,2.81149 111.537398,116.62472 120.065498,119.16725 1.87912,0.56023 3.7282,1.52302 5.68889,1.49707 2.49491,-0.033 4.94514,-0.99846 7.18596,-2.0959 2.66821,-1.30675 195.46157,-196.39742 198.8117,-200.00936 0.44293,-0.47755 1.54563,-4.89234 1.49708,-5.68889 -0.0717,-1.17661 -1.04143,-6.1921 -1.7965,-6.88655 -2.5494,-2.34472 -38.56277,-39.12789 -40.72046,-41.01988 -1.38371,-1.21331 -3.55091,-1.27788 -5.38948,-1.19766 -1.98671,0.0867 -4.27442,0.3987 -5.68889,1.79649 -2.16749,2.14192 -153.6,154.19883 -153.6,154.19883 z"
       id="path6" /></g><g
     id="g12"
     transform="translate(-23.712463,-10.162491)"><circle
       style="display:inline;fill:#c10606;fill-opacity:1;stroke:#31ff53;stroke-width:0;stroke-dasharray:none;stroke-opacity:1"
       id="circle10"
       cx="259.14346"
       cy="245.59349"
       r="235.431" /><path
       style="fill:#000000;fill-opacity:0.245968;stroke:#31ff53;stroke-width:0;stroke-linejoin:miter;stroke-dasharray:none;stroke-opacity:1"
       d="m 209.41525,257.50072 c 0,0 -74.29134,-75.76484 -82.93801,-84.43509 -2.04382,-2.0494 -1.90975,-6.50817 0,-8.68304 3.88987,-4.42988 35.55671,-34.46187 41.3193,-39.82222 2.26539,-2.10726 6.76394,-1.79794 9.28187,0 5.67945,4.05542 83.53684,80.84211 83.53684,80.84211 0,0 75.58689,-75.17435 81.44094,-80.54269 2.36419,-2.16803 7.11187,-2.94562 9.58129,-0.89825 6.84307,5.67353 35.72398,34.11798 41.01988,39.52281 2.10598,2.14929 2.7305,6.59553 0.89824,8.98245 -4.67609,6.09165 -82.93801,85.63275 -82.93801,85.63275 0,0 73.97248,71.52715 82.6386,80.24328 2.39256,2.40637 2.28954,7.67553 0,10.18012 -5.51373,6.03163 -34.33255,35.83944 -38.92398,39.5228 -3.04014,2.43888 -8.77782,3.20349 -11.67719,0.59883 -7.23914,-6.50331 -82.33918,-82.63859 -82.33918,-82.63859 0,0 -76.21131,76.1793 -81.44094,82.03976 -2.52864,2.83366 -8.66801,3.2598 -11.37778,0.59883 -6.86071,-6.73715 -35.05048,-34.58415 -41.31929,-41.61871 -2.06804,-2.32065 -1.13978,-6.93481 0.89824,-9.28187 4.00385,-4.61097 82.33918,-80.24328 82.33918,-80.24328 z"
       id="path13" /><path
       style="fill:#ffffff;fill-opacity:1;stroke:#31ff53;stroke-width:0;stroke-linejoin:miter;stroke-dasharray:none;stroke-opacity:1"
       d="m 208.99181,245.22105 c 0,0 -74.29134,-75.76484 -82.93801,-84.43509 -2.04382,-2.0494 -1.90975,-6.50817 0,-8.68304 3.88987,-4.42988 35.55671,-34.46187 41.3193,-39.82222 2.26539,-2.10726 6.76394,-1.79794 9.28187,0 5.67945,4.05542 83.53684,80.84211 83.53684,80.84211 0,0 75.58689,-75.17435 81.44094,-80.54269 2.36419,-2.16803 7.11187,-2.94562 9.58129,-0.89825 6.84307,5.67353 35.72398,34.11798 41.01988,39.52281 2.10598,2.14929 2.7305,6.59553 0.89824,8.98245 -4.67609,6.09165 -82.93801,85.63275 -82.93801,85.63275 0,0 73.97248,71.52715 82.6386,80.24328 2.39256,2.40637 2.28954,7.67553 0,10.18012 -5.51373,6.03163 -34.33255,35.83944 -38.92398,39.5228 -3.04014,2.43888 -8.77782,3.20349 -11.67719,0.59883 -7.23914,-6.50331 -82.33918,-82.63859 -82.33918,-82.63859 0,0 -76.21131,76.1793 -81.44094,82.03976 -2.52864,2.83366 -8.66801,3.2598 -11.37778,0.59883 -6.86071,-6.73715 -35.05048,-34.58415 -41.31929,-41.61871 -2.06804,-2.32065 -1.13978,-6.93481 0.89824,-9.28187 4.00385,-4.61097 82.33918,-80.24328 82.33918,-80.24328 z"
       id="path12" /></g></svg>
